G04*
G04 #@! TF.GenerationSoftware,Altium Limited,Altium Designer,20.1.10 (176)*
G04*
G04 Layer_Color=8388736*
%FSLAX25Y25*%
%MOIN*%
G70*
G04*
G04 #@! TF.SameCoordinates,C4499B9A-1E71-4EDD-A5B7-EE233C105FA9*
G04*
G04*
G04 #@! TF.FilePolarity,Negative*
G04*
G01*
G75*
G04:AMPARAMS|DCode=18|XSize=45.37mil|YSize=49.31mil|CornerRadius=12.84mil|HoleSize=0mil|Usage=FLASHONLY|Rotation=0.000|XOffset=0mil|YOffset=0mil|HoleType=Round|Shape=RoundedRectangle|*
%AMROUNDEDRECTD18*
21,1,0.04537,0.02362,0,0,0.0*
21,1,0.01968,0.04931,0,0,0.0*
1,1,0.02568,0.00984,-0.01181*
1,1,0.02568,-0.00984,-0.01181*
1,1,0.02568,-0.00984,0.01181*
1,1,0.02568,0.00984,0.01181*
%
%ADD18ROUNDEDRECTD18*%
G04:AMPARAMS|DCode=19|XSize=45.76mil|YSize=63.87mil|CornerRadius=12.94mil|HoleSize=0mil|Usage=FLASHONLY|Rotation=180.000|XOffset=0mil|YOffset=0mil|HoleType=Round|Shape=RoundedRectangle|*
%AMROUNDEDRECTD19*
21,1,0.04576,0.03799,0,0,180.0*
21,1,0.01988,0.06387,0,0,180.0*
1,1,0.02588,-0.00994,0.01900*
1,1,0.02588,0.00994,0.01900*
1,1,0.02588,0.00994,-0.01900*
1,1,0.02588,-0.00994,-0.01900*
%
%ADD19ROUNDEDRECTD19*%
G04:AMPARAMS|DCode=20|XSize=35.13mil|YSize=115.84mil|CornerRadius=10.28mil|HoleSize=0mil|Usage=FLASHONLY|Rotation=180.000|XOffset=0mil|YOffset=0mil|HoleType=Round|Shape=RoundedRectangle|*
%AMROUNDEDRECTD20*
21,1,0.03513,0.09528,0,0,180.0*
21,1,0.01457,0.11584,0,0,180.0*
1,1,0.02056,-0.00728,0.04764*
1,1,0.02056,0.00728,0.04764*
1,1,0.02056,0.00728,-0.04764*
1,1,0.02056,-0.00728,-0.04764*
%
%ADD20ROUNDEDRECTD20*%
G04:AMPARAMS|DCode=21|XSize=35.5mil|YSize=115.84mil|CornerRadius=10.38mil|HoleSize=0mil|Usage=FLASHONLY|Rotation=180.000|XOffset=0mil|YOffset=0mil|HoleType=Round|Shape=RoundedRectangle|*
%AMROUNDEDRECTD21*
21,1,0.03550,0.09509,0,0,180.0*
21,1,0.01475,0.11584,0,0,180.0*
1,1,0.02075,-0.00738,0.04755*
1,1,0.02075,0.00738,0.04755*
1,1,0.02075,0.00738,-0.04755*
1,1,0.02075,-0.00738,-0.04755*
%
%ADD21ROUNDEDRECTD21*%
G04:AMPARAMS|DCode=22|XSize=25.68mil|YSize=45.37mil|CornerRadius=7.92mil|HoleSize=0mil|Usage=FLASHONLY|Rotation=0.000|XOffset=0mil|YOffset=0mil|HoleType=Round|Shape=RoundedRectangle|*
%AMROUNDEDRECTD22*
21,1,0.02568,0.02953,0,0,0.0*
21,1,0.00984,0.04537,0,0,0.0*
1,1,0.01584,0.00492,-0.01476*
1,1,0.01584,-0.00492,-0.01476*
1,1,0.01584,-0.00492,0.01476*
1,1,0.01584,0.00492,0.01476*
%
%ADD22ROUNDEDRECTD22*%
G04:AMPARAMS|DCode=23|XSize=45mil|YSize=49mil|CornerRadius=12.75mil|HoleSize=0mil|Usage=FLASHONLY|Rotation=180.000|XOffset=0mil|YOffset=0mil|HoleType=Round|Shape=RoundedRectangle|*
%AMROUNDEDRECTD23*
21,1,0.04500,0.02350,0,0,180.0*
21,1,0.01950,0.04900,0,0,180.0*
1,1,0.02550,-0.00975,0.01175*
1,1,0.02550,0.00975,0.01175*
1,1,0.02550,0.00975,-0.01175*
1,1,0.02550,-0.00975,-0.01175*
%
%ADD23ROUNDEDRECTD23*%
G04:AMPARAMS|DCode=24|XSize=45mil|YSize=49mil|CornerRadius=12.75mil|HoleSize=0mil|Usage=FLASHONLY|Rotation=270.000|XOffset=0mil|YOffset=0mil|HoleType=Round|Shape=RoundedRectangle|*
%AMROUNDEDRECTD24*
21,1,0.04500,0.02350,0,0,270.0*
21,1,0.01950,0.04900,0,0,270.0*
1,1,0.02550,-0.01175,-0.00975*
1,1,0.02550,-0.01175,0.00975*
1,1,0.02550,0.01175,0.00975*
1,1,0.02550,0.01175,-0.00975*
%
%ADD24ROUNDEDRECTD24*%
%ADD25R,0.06506X0.03356*%
%ADD26R,0.09261X0.04537*%
%ADD27C,0.07600*%
%ADD28R,0.07600X0.07600*%
%ADD29R,0.07600X0.07600*%
%ADD30O,0.06112X0.04143*%
%ADD31R,0.06112X0.04143*%
G36*
X48389Y66736D02*
X48411Y66735D01*
X48412Y66734D01*
X48414Y66734D01*
X48435Y66729D01*
X48457Y66724D01*
X48458Y66724D01*
X48459Y66723D01*
X48480Y66715D01*
X48501Y66706D01*
X48502Y66706D01*
X48503Y66705D01*
X48522Y66694D01*
X48541Y66682D01*
X51297Y64713D01*
X51298Y64713D01*
X51299Y64712D01*
X51316Y64697D01*
X51333Y64683D01*
X51334Y64682D01*
X51335Y64681D01*
X51350Y64664D01*
X51364Y64647D01*
X51365Y64646D01*
X51366Y64645D01*
X51378Y64626D01*
X51389Y64607D01*
X51390Y64606D01*
X51390Y64605D01*
X51399Y64585D01*
X51408Y64564D01*
X51408Y64563D01*
X51409Y64561D01*
X51414Y64540D01*
X51419Y64518D01*
X51419Y64517D01*
X51420Y64516D01*
X51421Y64493D01*
X51423Y64471D01*
X51423Y64470D01*
X51423Y64468D01*
Y60532D01*
X51423Y60530D01*
X51423Y60529D01*
X51421Y60507D01*
X51420Y60484D01*
X51419Y60483D01*
X51419Y60482D01*
X51414Y60460D01*
X51409Y60439D01*
X51408Y60437D01*
X51408Y60436D01*
X51399Y60415D01*
X51390Y60395D01*
X51390Y60394D01*
X51389Y60393D01*
X51378Y60374D01*
X51366Y60355D01*
X51365Y60354D01*
X51364Y60353D01*
X51350Y60336D01*
X51335Y60319D01*
X51334Y60318D01*
X51333Y60317D01*
X51316Y60303D01*
X51299Y60288D01*
X51298Y60287D01*
X51297Y60287D01*
X48541Y58318D01*
X48522Y58306D01*
X48503Y58295D01*
X48502Y58294D01*
X48501Y58294D01*
X48480Y58285D01*
X48459Y58277D01*
X48458Y58276D01*
X48457Y58276D01*
X48436Y58271D01*
X48414Y58266D01*
X48412Y58266D01*
X48411Y58265D01*
X48389Y58264D01*
X48366Y58262D01*
X45217D01*
X45195Y58264D01*
X45172Y58265D01*
X45171Y58266D01*
X45170Y58266D01*
X45148Y58271D01*
X45126Y58276D01*
X45125Y58276D01*
X45124Y58277D01*
X45103Y58285D01*
X45082Y58294D01*
X45081Y58294D01*
X45080Y58295D01*
X45061Y58306D01*
X45042Y58318D01*
X42286Y60287D01*
X42285Y60287D01*
X42284Y60288D01*
X42267Y60303D01*
X42250Y60317D01*
X42249Y60318D01*
X42248Y60319D01*
X42234Y60336D01*
X42219Y60353D01*
X42218Y60354D01*
X42217Y60355D01*
X42206Y60374D01*
X42194Y60393D01*
X42193Y60394D01*
X42193Y60395D01*
X42184Y60415D01*
X42175Y60436D01*
X42175Y60437D01*
X42175Y60439D01*
X42169Y60460D01*
X42164Y60482D01*
X42164Y60483D01*
X42164Y60484D01*
X42162Y60507D01*
X42160Y60529D01*
X42160Y60530D01*
X42160Y60532D01*
Y64468D01*
X42160Y64470D01*
X42160Y64471D01*
X42162Y64493D01*
X42164Y64516D01*
X42164Y64517D01*
X42164Y64518D01*
X42169Y64540D01*
X42175Y64561D01*
X42175Y64563D01*
X42175Y64564D01*
X42184Y64585D01*
X42193Y64605D01*
X42193Y64606D01*
X42194Y64607D01*
X42206Y64626D01*
X42217Y64645D01*
X42218Y64646D01*
X42219Y64647D01*
X42234Y64664D01*
X42248Y64681D01*
X42249Y64682D01*
X42250Y64683D01*
X42267Y64697D01*
X42284Y64712D01*
X42285Y64713D01*
X42286Y64713D01*
X45042Y66682D01*
X45061Y66694D01*
X45080Y66705D01*
X45081Y66706D01*
X45082Y66706D01*
X45103Y66715D01*
X45124Y66723D01*
X45125Y66724D01*
X45126Y66724D01*
X45148Y66729D01*
X45170Y66734D01*
X45171Y66734D01*
X45172Y66735D01*
X45195Y66736D01*
X45217Y66738D01*
X48366D01*
X48389Y66736D01*
D02*
G37*
D18*
X31453Y56906D02*
D03*
Y63599D02*
D03*
X60500Y55654D02*
D03*
Y62347D02*
D03*
X67500Y55654D02*
D03*
Y62347D02*
D03*
D19*
X63142Y6500D02*
D03*
X70858D02*
D03*
X11882D02*
D03*
X19598D02*
D03*
D20*
X34500Y21701D02*
D03*
X39500D02*
D03*
X44500D02*
D03*
X34500Y37701D02*
D03*
X44500D02*
D03*
X49500Y21701D02*
D03*
X54500D02*
D03*
X49500Y37701D02*
D03*
X54500D02*
D03*
X103000Y21701D02*
D03*
Y37701D02*
D03*
X108000Y21701D02*
D03*
X113000D02*
D03*
X123000D02*
D03*
X118000D02*
D03*
Y37701D02*
D03*
X113000D02*
D03*
X123000D02*
D03*
D21*
X78000Y21701D02*
D03*
X83000D02*
D03*
X88000D02*
D03*
X93000D02*
D03*
X98000D02*
D03*
X78000Y37701D02*
D03*
X83000D02*
D03*
X88000D02*
D03*
X93000D02*
D03*
X98000D02*
D03*
D22*
X65531Y39047D02*
D03*
X69468D02*
D03*
X67500Y33732D02*
D03*
D23*
X63500Y14855D02*
D03*
Y21547D02*
D03*
X26300Y21955D02*
D03*
Y28648D02*
D03*
X123000Y61718D02*
D03*
Y68411D02*
D03*
D24*
X109973Y49701D02*
D03*
X116666D02*
D03*
X62594Y45273D02*
D03*
X69287D02*
D03*
D25*
X40886Y56595D02*
D03*
Y68405D02*
D03*
X52697Y56595D02*
D03*
Y68405D02*
D03*
D26*
X42264Y62500D02*
D03*
X51319D02*
D03*
D27*
X11500Y41500D02*
D03*
Y51500D02*
D03*
Y31500D02*
D03*
Y21500D02*
D03*
X21000Y88000D02*
D03*
X31000D02*
D03*
X41000D02*
D03*
X51000D02*
D03*
X61000D02*
D03*
X71000D02*
D03*
X81000D02*
D03*
X91000D02*
D03*
X101000D02*
D03*
X111000D02*
D03*
X21000Y78000D02*
D03*
X31000D02*
D03*
X41000D02*
D03*
X51000D02*
D03*
X61000D02*
D03*
X71000D02*
D03*
X81000D02*
D03*
X91000D02*
D03*
X101000D02*
D03*
D28*
X11500Y61500D02*
D03*
D29*
X111000Y78000D02*
D03*
D30*
X85158Y70496D02*
D03*
X95000D02*
D03*
X104842D02*
D03*
Y57504D02*
D03*
X95000D02*
D03*
D31*
X85158D02*
D03*
M02*
