G04*
G04 #@! TF.GenerationSoftware,Altium Limited,Altium Designer,20.1.10 (176)*
G04*
G04 Layer_Color=16711935*
%FSLAX25Y25*%
%MOIN*%
G70*
G04*
G04 #@! TF.SameCoordinates,C4499B9A-1E71-4EDD-A5B7-EE233C105FA9*
G04*
G04*
G04 #@! TF.FilePolarity,Negative*
G04*
G01*
G75*
%ADD27C,0.07600*%
%ADD28R,0.07600X0.07600*%
%ADD29R,0.07600X0.07600*%
%ADD30O,0.06112X0.04143*%
%ADD31R,0.06112X0.04143*%
%ADD50C,0.03500*%
D27*
X11500Y41500D02*
D03*
Y51500D02*
D03*
Y31500D02*
D03*
Y21500D02*
D03*
X21000Y88000D02*
D03*
X31000D02*
D03*
X41000D02*
D03*
X51000D02*
D03*
X61000D02*
D03*
X71000D02*
D03*
X81000D02*
D03*
X91000D02*
D03*
X101000D02*
D03*
X111000D02*
D03*
X21000Y78000D02*
D03*
X31000D02*
D03*
X41000D02*
D03*
X51000D02*
D03*
X61000D02*
D03*
X71000D02*
D03*
X81000D02*
D03*
X91000D02*
D03*
X101000D02*
D03*
D28*
X11500Y61500D02*
D03*
D29*
X111000Y78000D02*
D03*
D30*
X85158Y70496D02*
D03*
X95000D02*
D03*
X104842D02*
D03*
Y57504D02*
D03*
X95000D02*
D03*
D31*
X85158D02*
D03*
D50*
X21000Y88000D02*
X61000D01*
M02*
