G04*
G04 #@! TF.GenerationSoftware,Altium Limited,Altium Designer,20.1.10 (176)*
G04*
G04 Layer_Physical_Order=1*
G04 Layer_Color=255*
%FSLAX25Y25*%
%MOIN*%
G70*
G04*
G04 #@! TF.SameCoordinates,C4499B9A-1E71-4EDD-A5B7-EE233C105FA9*
G04*
G04*
G04 #@! TF.FilePolarity,Positive*
G04*
G01*
G75*
%ADD13C,0.01000*%
G04:AMPARAMS|DCode=32|XSize=39.37mil|YSize=43.31mil|CornerRadius=9.84mil|HoleSize=0mil|Usage=FLASHONLY|Rotation=0.000|XOffset=0mil|YOffset=0mil|HoleType=Round|Shape=RoundedRectangle|*
%AMROUNDEDRECTD32*
21,1,0.03937,0.02362,0,0,0.0*
21,1,0.01968,0.04331,0,0,0.0*
1,1,0.01968,0.00984,-0.01181*
1,1,0.01968,-0.00984,-0.01181*
1,1,0.01968,-0.00984,0.01181*
1,1,0.01968,0.00984,0.01181*
%
%ADD32ROUNDEDRECTD32*%
G04:AMPARAMS|DCode=33|XSize=39.76mil|YSize=57.87mil|CornerRadius=9.94mil|HoleSize=0mil|Usage=FLASHONLY|Rotation=180.000|XOffset=0mil|YOffset=0mil|HoleType=Round|Shape=RoundedRectangle|*
%AMROUNDEDRECTD33*
21,1,0.03976,0.03799,0,0,180.0*
21,1,0.01988,0.05787,0,0,180.0*
1,1,0.01988,-0.00994,0.01900*
1,1,0.01988,0.00994,0.01900*
1,1,0.01988,0.00994,-0.01900*
1,1,0.01988,-0.00994,-0.01900*
%
%ADD33ROUNDEDRECTD33*%
G04:AMPARAMS|DCode=34|XSize=29.13mil|YSize=109.84mil|CornerRadius=7.28mil|HoleSize=0mil|Usage=FLASHONLY|Rotation=180.000|XOffset=0mil|YOffset=0mil|HoleType=Round|Shape=RoundedRectangle|*
%AMROUNDEDRECTD34*
21,1,0.02913,0.09528,0,0,180.0*
21,1,0.01457,0.10984,0,0,180.0*
1,1,0.01457,-0.00728,0.04764*
1,1,0.01457,0.00728,0.04764*
1,1,0.01457,0.00728,-0.04764*
1,1,0.01457,-0.00728,-0.04764*
%
%ADD34ROUNDEDRECTD34*%
G04:AMPARAMS|DCode=35|XSize=29.5mil|YSize=109.84mil|CornerRadius=7.38mil|HoleSize=0mil|Usage=FLASHONLY|Rotation=180.000|XOffset=0mil|YOffset=0mil|HoleType=Round|Shape=RoundedRectangle|*
%AMROUNDEDRECTD35*
21,1,0.02950,0.09509,0,0,180.0*
21,1,0.01475,0.10984,0,0,180.0*
1,1,0.01475,-0.00738,0.04755*
1,1,0.01475,0.00738,0.04755*
1,1,0.01475,0.00738,-0.04755*
1,1,0.01475,-0.00738,-0.04755*
%
%ADD35ROUNDEDRECTD35*%
G04:AMPARAMS|DCode=36|XSize=19.68mil|YSize=39.37mil|CornerRadius=4.92mil|HoleSize=0mil|Usage=FLASHONLY|Rotation=0.000|XOffset=0mil|YOffset=0mil|HoleType=Round|Shape=RoundedRectangle|*
%AMROUNDEDRECTD36*
21,1,0.01968,0.02953,0,0,0.0*
21,1,0.00984,0.03937,0,0,0.0*
1,1,0.00984,0.00492,-0.01476*
1,1,0.00984,-0.00492,-0.01476*
1,1,0.00984,-0.00492,0.01476*
1,1,0.00984,0.00492,0.01476*
%
%ADD36ROUNDEDRECTD36*%
G04:AMPARAMS|DCode=37|XSize=39mil|YSize=43mil|CornerRadius=9.75mil|HoleSize=0mil|Usage=FLASHONLY|Rotation=180.000|XOffset=0mil|YOffset=0mil|HoleType=Round|Shape=RoundedRectangle|*
%AMROUNDEDRECTD37*
21,1,0.03900,0.02350,0,0,180.0*
21,1,0.01950,0.04300,0,0,180.0*
1,1,0.01950,-0.00975,0.01175*
1,1,0.01950,0.00975,0.01175*
1,1,0.01950,0.00975,-0.01175*
1,1,0.01950,-0.00975,-0.01175*
%
%ADD37ROUNDEDRECTD37*%
G04:AMPARAMS|DCode=38|XSize=39mil|YSize=43mil|CornerRadius=9.75mil|HoleSize=0mil|Usage=FLASHONLY|Rotation=270.000|XOffset=0mil|YOffset=0mil|HoleType=Round|Shape=RoundedRectangle|*
%AMROUNDEDRECTD38*
21,1,0.03900,0.02350,0,0,270.0*
21,1,0.01950,0.04300,0,0,270.0*
1,1,0.01950,-0.01175,-0.00975*
1,1,0.01950,-0.01175,0.00975*
1,1,0.01950,0.01175,0.00975*
1,1,0.01950,0.01175,-0.00975*
%
%ADD38ROUNDEDRECTD38*%
%ADD39R,0.05906X0.02756*%
%ADD40R,0.08661X0.03937*%
%ADD41C,0.01500*%
%ADD42C,0.02000*%
%ADD43C,0.07000*%
%ADD44R,0.07000X0.07000*%
%ADD45R,0.07000X0.07000*%
%ADD46O,0.05512X0.03543*%
%ADD47R,0.05512X0.03543*%
%ADD48C,0.02700*%
%ADD49C,0.02400*%
G36*
X130864Y7998D02*
Y7361D01*
X130616Y6111D01*
X130128Y4934D01*
X129420Y3874D01*
X128519Y2973D01*
X127460Y2266D01*
X126283Y1778D01*
X125033Y1529D01*
X49070D01*
X48882Y2029D01*
X49196Y2499D01*
X49335Y3201D01*
X49196Y3903D01*
X48798Y4499D01*
X48202Y4897D01*
X47500Y5036D01*
X46798Y4897D01*
X46202Y4499D01*
X45804Y3903D01*
X45665Y3201D01*
X45804Y2499D01*
X46118Y2029D01*
X45930Y1529D01*
X7361D01*
X6111Y1778D01*
X4934Y2266D01*
X3874Y2973D01*
X2973Y3874D01*
X2266Y4934D01*
X1778Y6111D01*
X1529Y7361D01*
Y7998D01*
Y97471D01*
X130864D01*
Y7998D01*
D02*
G37*
%LPC*%
G36*
X81750Y92440D02*
Y88750D01*
X85440D01*
X85384Y89175D01*
X84931Y90269D01*
X84209Y91209D01*
X83269Y91931D01*
X82175Y92384D01*
X81750Y92440D01*
D02*
G37*
G36*
X101750D02*
Y88750D01*
X105440D01*
X105384Y89175D01*
X104931Y90269D01*
X104209Y91209D01*
X103269Y91931D01*
X102175Y92384D01*
X101750Y92440D01*
D02*
G37*
G36*
X91750D02*
Y88750D01*
X95440D01*
X95384Y89175D01*
X94931Y90269D01*
X94209Y91209D01*
X93269Y91931D01*
X92175Y92384D01*
X91750Y92440D01*
D02*
G37*
G36*
X61750D02*
Y88750D01*
X65440D01*
X65384Y89175D01*
X64931Y90269D01*
X64209Y91209D01*
X63269Y91931D01*
X62175Y92384D01*
X61750Y92440D01*
D02*
G37*
G36*
X71750D02*
Y88750D01*
X75440D01*
X75384Y89175D01*
X74931Y90269D01*
X74209Y91209D01*
X73269Y91931D01*
X72175Y92384D01*
X71750Y92440D01*
D02*
G37*
G36*
X80250D02*
X79825Y92384D01*
X78731Y91931D01*
X77791Y91209D01*
X77069Y90269D01*
X76616Y89175D01*
X76560Y88750D01*
X80250D01*
Y92440D01*
D02*
G37*
G36*
X60250D02*
X59825Y92384D01*
X58731Y91931D01*
X57791Y91209D01*
X57069Y90269D01*
X56616Y89175D01*
X56560Y88750D01*
X60250D01*
Y92440D01*
D02*
G37*
G36*
X100250D02*
X99825Y92384D01*
X98731Y91931D01*
X97791Y91209D01*
X97069Y90269D01*
X96616Y89175D01*
X96560Y88750D01*
X100250D01*
Y92440D01*
D02*
G37*
G36*
X90250D02*
X89825Y92384D01*
X88731Y91931D01*
X87791Y91209D01*
X87069Y90269D01*
X86616Y89175D01*
X86560Y88750D01*
X90250D01*
Y92440D01*
D02*
G37*
G36*
X70250D02*
X69825Y92384D01*
X68731Y91931D01*
X67791Y91209D01*
X67069Y90269D01*
X66616Y89175D01*
X66560Y88750D01*
X70250D01*
Y92440D01*
D02*
G37*
G36*
X111000Y92337D02*
X109878Y92189D01*
X108831Y91756D01*
X107933Y91067D01*
X107244Y90169D01*
X106811Y89122D01*
X106663Y88000D01*
X106811Y86878D01*
X107244Y85831D01*
X107933Y84933D01*
X108831Y84244D01*
X109878Y83811D01*
X111000Y83663D01*
X112122Y83811D01*
X113169Y84244D01*
X114067Y84933D01*
X114756Y85831D01*
X115189Y86878D01*
X115337Y88000D01*
X115189Y89122D01*
X114756Y90169D01*
X114067Y91067D01*
X113169Y91756D01*
X112122Y92189D01*
X111000Y92337D01*
D02*
G37*
G36*
X51000D02*
X49878Y92189D01*
X48831Y91756D01*
X47933Y91067D01*
X47244Y90169D01*
X46811Y89122D01*
X46663Y88000D01*
X46811Y86878D01*
X47244Y85831D01*
X47933Y84933D01*
X48831Y84244D01*
X49878Y83811D01*
X51000Y83663D01*
X52122Y83811D01*
X53169Y84244D01*
X54067Y84933D01*
X54756Y85831D01*
X55189Y86878D01*
X55337Y88000D01*
X55189Y89122D01*
X54756Y90169D01*
X54067Y91067D01*
X53169Y91756D01*
X52122Y92189D01*
X51000Y92337D01*
D02*
G37*
G36*
X41000D02*
X39878Y92189D01*
X38831Y91756D01*
X37933Y91067D01*
X37244Y90169D01*
X36811Y89122D01*
X36663Y88000D01*
X36811Y86878D01*
X37244Y85831D01*
X37933Y84933D01*
X38831Y84244D01*
X39878Y83811D01*
X41000Y83663D01*
X42123Y83811D01*
X43169Y84244D01*
X44067Y84933D01*
X44756Y85831D01*
X45189Y86878D01*
X45337Y88000D01*
X45189Y89122D01*
X44756Y90169D01*
X44067Y91067D01*
X43169Y91756D01*
X42123Y92189D01*
X41000Y92337D01*
D02*
G37*
G36*
X31000D02*
X29877Y92189D01*
X28831Y91756D01*
X27933Y91067D01*
X27244Y90169D01*
X26811Y89122D01*
X26663Y88000D01*
X26811Y86878D01*
X27244Y85831D01*
X27933Y84933D01*
X28831Y84244D01*
X29877Y83811D01*
X31000Y83663D01*
X32122Y83811D01*
X33169Y84244D01*
X34067Y84933D01*
X34756Y85831D01*
X35189Y86878D01*
X35337Y88000D01*
X35189Y89122D01*
X34756Y90169D01*
X34067Y91067D01*
X33169Y91756D01*
X32122Y92189D01*
X31000Y92337D01*
D02*
G37*
G36*
X21000D02*
X19877Y92189D01*
X18832Y91756D01*
X17933Y91067D01*
X17244Y90169D01*
X16811Y89122D01*
X16663Y88000D01*
X16811Y86878D01*
X17244Y85831D01*
X17933Y84933D01*
X18832Y84244D01*
X19877Y83811D01*
X21000Y83663D01*
X22122Y83811D01*
X23168Y84244D01*
X24067Y84933D01*
X24756Y85831D01*
X25189Y86878D01*
X25337Y88000D01*
X25189Y89122D01*
X24756Y90169D01*
X24067Y91067D01*
X23168Y91756D01*
X22122Y92189D01*
X21000Y92337D01*
D02*
G37*
G36*
X105440Y87250D02*
X101750D01*
Y83560D01*
X102175Y83616D01*
X103269Y84069D01*
X104209Y84791D01*
X104931Y85731D01*
X105384Y86825D01*
X105440Y87250D01*
D02*
G37*
G36*
X95440D02*
X91750D01*
Y83560D01*
X92175Y83616D01*
X93269Y84069D01*
X94209Y84791D01*
X94931Y85731D01*
X95384Y86825D01*
X95440Y87250D01*
D02*
G37*
G36*
X85440D02*
X81750D01*
Y83560D01*
X82175Y83616D01*
X83269Y84069D01*
X84209Y84791D01*
X84931Y85731D01*
X85384Y86825D01*
X85440Y87250D01*
D02*
G37*
G36*
X75440D02*
X71750D01*
Y83560D01*
X72175Y83616D01*
X73269Y84069D01*
X74209Y84791D01*
X74931Y85731D01*
X75384Y86825D01*
X75440Y87250D01*
D02*
G37*
G36*
X65440D02*
X61750D01*
Y83560D01*
X62175Y83616D01*
X63269Y84069D01*
X64209Y84791D01*
X64931Y85731D01*
X65384Y86825D01*
X65440Y87250D01*
D02*
G37*
G36*
X100250D02*
X96560D01*
X96616Y86825D01*
X97069Y85731D01*
X97791Y84791D01*
X98731Y84069D01*
X99825Y83616D01*
X100250Y83560D01*
Y87250D01*
D02*
G37*
G36*
X90250D02*
X86560D01*
X86616Y86825D01*
X87069Y85731D01*
X87791Y84791D01*
X88731Y84069D01*
X89825Y83616D01*
X90250Y83560D01*
Y87250D01*
D02*
G37*
G36*
X80250D02*
X76560D01*
X76616Y86825D01*
X77069Y85731D01*
X77791Y84791D01*
X78731Y84069D01*
X79825Y83616D01*
X80250Y83560D01*
Y87250D01*
D02*
G37*
G36*
X70250D02*
X66560D01*
X66616Y86825D01*
X67069Y85731D01*
X67791Y84791D01*
X68731Y84069D01*
X69825Y83616D01*
X70250Y83560D01*
Y87250D01*
D02*
G37*
G36*
X60250D02*
X56560D01*
X56616Y86825D01*
X57069Y85731D01*
X57791Y84791D01*
X58731Y84069D01*
X59825Y83616D01*
X60250Y83560D01*
Y87250D01*
D02*
G37*
G36*
X91000Y82337D02*
X89877Y82189D01*
X88831Y81756D01*
X87933Y81067D01*
X87244Y80169D01*
X86811Y79123D01*
X86663Y78000D01*
X86811Y76877D01*
X87244Y75831D01*
X87933Y74933D01*
X88831Y74244D01*
X89877Y73811D01*
X91000Y73663D01*
X92123Y73811D01*
X93169Y74244D01*
X94067Y74933D01*
X94756Y75831D01*
X95189Y76877D01*
X95337Y78000D01*
X95189Y79123D01*
X94756Y80169D01*
X94067Y81067D01*
X93169Y81756D01*
X92123Y82189D01*
X91000Y82337D01*
D02*
G37*
G36*
X81000D02*
X79878Y82189D01*
X78831Y81756D01*
X77933Y81067D01*
X77244Y80169D01*
X76811Y79123D01*
X76663Y78000D01*
X76811Y76877D01*
X77244Y75831D01*
X77933Y74933D01*
X78831Y74244D01*
X79878Y73811D01*
X81000Y73663D01*
X82122Y73811D01*
X83169Y74244D01*
X84067Y74933D01*
X84756Y75831D01*
X85189Y76877D01*
X85337Y78000D01*
X85189Y79123D01*
X84756Y80169D01*
X84067Y81067D01*
X83169Y81756D01*
X82122Y82189D01*
X81000Y82337D01*
D02*
G37*
G36*
X71000D02*
X69877Y82189D01*
X68831Y81756D01*
X67933Y81067D01*
X67244Y80169D01*
X66811Y79123D01*
X66663Y78000D01*
X66811Y76877D01*
X67244Y75831D01*
X67933Y74933D01*
X68831Y74244D01*
X69877Y73811D01*
X71000Y73663D01*
X72123Y73811D01*
X73169Y74244D01*
X74067Y74933D01*
X74756Y75831D01*
X75189Y76877D01*
X75337Y78000D01*
X75189Y79123D01*
X74756Y80169D01*
X74067Y81067D01*
X73169Y81756D01*
X72123Y82189D01*
X71000Y82337D01*
D02*
G37*
G36*
X61000D02*
X59878Y82189D01*
X58831Y81756D01*
X57933Y81067D01*
X57244Y80169D01*
X56811Y79123D01*
X56663Y78000D01*
X56811Y76877D01*
X57244Y75831D01*
X57933Y74933D01*
X58831Y74244D01*
X59878Y73811D01*
X61000Y73663D01*
X62122Y73811D01*
X63169Y74244D01*
X64067Y74933D01*
X64756Y75831D01*
X65189Y76877D01*
X65337Y78000D01*
X65189Y79123D01*
X64756Y80169D01*
X64067Y81067D01*
X63169Y81756D01*
X62122Y82189D01*
X61000Y82337D01*
D02*
G37*
G36*
X51000D02*
X49878Y82189D01*
X48831Y81756D01*
X47933Y81067D01*
X47244Y80169D01*
X46811Y79123D01*
X46663Y78000D01*
X46811Y76877D01*
X47244Y75831D01*
X47933Y74933D01*
X48831Y74244D01*
X49878Y73811D01*
X51000Y73663D01*
X52122Y73811D01*
X53169Y74244D01*
X54067Y74933D01*
X54756Y75831D01*
X55189Y76877D01*
X55337Y78000D01*
X55189Y79123D01*
X54756Y80169D01*
X54067Y81067D01*
X53169Y81756D01*
X52122Y82189D01*
X51000Y82337D01*
D02*
G37*
G36*
X41000D02*
X39878Y82189D01*
X38831Y81756D01*
X37933Y81067D01*
X37244Y80169D01*
X36811Y79123D01*
X36663Y78000D01*
X36811Y76877D01*
X37244Y75831D01*
X37933Y74933D01*
X38831Y74244D01*
X39878Y73811D01*
X41000Y73663D01*
X42123Y73811D01*
X43169Y74244D01*
X44067Y74933D01*
X44756Y75831D01*
X45189Y76877D01*
X45337Y78000D01*
X45189Y79123D01*
X44756Y80169D01*
X44067Y81067D01*
X43169Y81756D01*
X42123Y82189D01*
X41000Y82337D01*
D02*
G37*
G36*
X31000D02*
X29877Y82189D01*
X28831Y81756D01*
X27933Y81067D01*
X27244Y80169D01*
X26811Y79123D01*
X26663Y78000D01*
X26811Y76877D01*
X27244Y75831D01*
X27933Y74933D01*
X28831Y74244D01*
X29877Y73811D01*
X31000Y73663D01*
X32122Y73811D01*
X33169Y74244D01*
X34067Y74933D01*
X34756Y75831D01*
X35189Y76877D01*
X35337Y78000D01*
X35189Y79123D01*
X34756Y80169D01*
X34067Y81067D01*
X33169Y81756D01*
X32122Y82189D01*
X31000Y82337D01*
D02*
G37*
G36*
X95984Y73090D02*
X94016D01*
X93344Y73001D01*
X92719Y72742D01*
X92182Y72330D01*
X91769Y71793D01*
X91510Y71167D01*
X91422Y70496D01*
X91510Y69825D01*
X91769Y69199D01*
X92182Y68662D01*
X92719Y68250D01*
X93344Y67991D01*
X94016Y67902D01*
X95984D01*
X96656Y67991D01*
X97281Y68250D01*
X97818Y68662D01*
X98231Y69199D01*
X98490Y69825D01*
X98578Y70496D01*
X98490Y71167D01*
X98231Y71793D01*
X97818Y72330D01*
X97281Y72742D01*
X96656Y73001D01*
X95984Y73090D01*
D02*
G37*
G36*
X86142D02*
X84173D01*
X83502Y73001D01*
X82876Y72742D01*
X82339Y72330D01*
X81927Y71793D01*
X81668Y71167D01*
X81579Y70496D01*
X81668Y69825D01*
X81927Y69199D01*
X82339Y68662D01*
X82876Y68250D01*
X83502Y67991D01*
X84173Y67902D01*
X86142D01*
X86813Y67991D01*
X87439Y68250D01*
X87976Y68662D01*
X88388Y69199D01*
X88647Y69825D01*
X88736Y70496D01*
X88647Y71167D01*
X88388Y71793D01*
X87976Y72330D01*
X87439Y72742D01*
X86813Y73001D01*
X86142Y73090D01*
D02*
G37*
G36*
X101000Y82337D02*
X99878Y82189D01*
X98831Y81756D01*
X97933Y81067D01*
X97244Y80169D01*
X96811Y79123D01*
X96663Y78000D01*
X96811Y76877D01*
X97244Y75831D01*
X97933Y74933D01*
X98831Y74244D01*
X99878Y73811D01*
X101000Y73663D01*
X102122Y73811D01*
X103169Y74244D01*
X103952Y74845D01*
X105246Y73552D01*
X105055Y73090D01*
X103858D01*
X103187Y73001D01*
X102561Y72742D01*
X102024Y72330D01*
X101612Y71793D01*
X101353Y71167D01*
X101264Y70496D01*
X101353Y69825D01*
X101612Y69199D01*
X102024Y68662D01*
X102561Y68250D01*
X103187Y67991D01*
X103858Y67902D01*
X105827D01*
X106498Y67991D01*
X107124Y68250D01*
X107661Y68662D01*
X108073Y69199D01*
X108313Y69778D01*
X108667Y69944D01*
X108807Y69991D01*
X110763Y68035D01*
X110763Y68035D01*
X111127Y67791D01*
X111556Y67706D01*
X120215D01*
Y67236D01*
X120353Y66543D01*
X120745Y65956D01*
X121332Y65564D01*
X122025Y65426D01*
X123975D01*
X124190Y65469D01*
X124647Y65109D01*
Y65019D01*
X124190Y64660D01*
X123975Y64702D01*
X122025D01*
X121332Y64565D01*
X120745Y64173D01*
X120353Y63585D01*
X120215Y62893D01*
Y62839D01*
X117034D01*
X117034Y62839D01*
X116604Y62754D01*
X116241Y62511D01*
X116240Y62511D01*
X112355Y58626D01*
X108146D01*
X108073Y58801D01*
X107661Y59338D01*
X107124Y59750D01*
X106498Y60009D01*
X105827Y60098D01*
X103858D01*
X103187Y60009D01*
X102561Y59750D01*
X102024Y59338D01*
X101612Y58801D01*
X101353Y58175D01*
X101264Y57504D01*
X101353Y56833D01*
X101612Y56207D01*
X102024Y55670D01*
X102350Y55420D01*
X102180Y54920D01*
X97663D01*
X97493Y55420D01*
X97818Y55670D01*
X98231Y56207D01*
X98490Y56833D01*
X98578Y57504D01*
X98490Y58175D01*
X98231Y58801D01*
X97818Y59338D01*
X97281Y59750D01*
X96656Y60009D01*
X95984Y60098D01*
X94016D01*
X93344Y60009D01*
X92719Y59750D01*
X92182Y59338D01*
X91769Y58801D01*
X91510Y58175D01*
X91422Y57504D01*
X91510Y56833D01*
X91769Y56207D01*
X92182Y55670D01*
X92719Y55258D01*
X93344Y54998D01*
X94016Y54910D01*
X95835D01*
X95905Y54816D01*
X96023Y54500D01*
X96030Y54420D01*
X91937Y50327D01*
X63456D01*
X63200Y50739D01*
X63201Y50827D01*
X63335Y51500D01*
X63196Y52202D01*
X62862Y52702D01*
X62771Y53186D01*
X63165Y53776D01*
X63304Y54472D01*
Y56835D01*
X63165Y57531D01*
X63163Y57534D01*
X63551Y57852D01*
X64505Y56898D01*
X64493Y56835D01*
Y56404D01*
X67500D01*
X70507D01*
Y56835D01*
X70353Y57609D01*
X69915Y58265D01*
X69258Y58704D01*
X68484Y58858D01*
Y59346D01*
X69180Y59485D01*
X69771Y59879D01*
X70165Y60469D01*
X70303Y61165D01*
Y63528D01*
X70165Y64224D01*
X69771Y64814D01*
X69180Y65208D01*
X68484Y65347D01*
X66643D01*
X62611Y69379D01*
X62164Y69677D01*
X61638Y69782D01*
X56450D01*
Y70583D01*
X48944D01*
Y67390D01*
X48718Y67172D01*
X48444Y67054D01*
X48366Y67086D01*
X45375D01*
X45085Y67420D01*
X45034Y67548D01*
X45082Y67657D01*
X45307D01*
X45682Y67731D01*
X46017Y67665D01*
X46720Y67804D01*
X47315Y68202D01*
X47713Y68798D01*
X47853Y69500D01*
X47713Y70202D01*
X47315Y70798D01*
X46720Y71196D01*
X46017Y71335D01*
X45315Y71196D01*
X44720Y70798D01*
X44576Y70583D01*
X37133D01*
Y66228D01*
X42987D01*
X43140Y65751D01*
X42744Y65469D01*
X36933D01*
Y64426D01*
X34460D01*
Y64780D01*
X34306Y65554D01*
X33868Y66211D01*
X33211Y66649D01*
X32437Y66803D01*
X32203D01*
Y63599D01*
X31453D01*
Y62849D01*
X28446D01*
Y62764D01*
X27946Y62557D01*
X27592Y62910D01*
Y72784D01*
X27592Y72784D01*
X27487Y73311D01*
X27189Y73758D01*
X24861Y76085D01*
X25189Y76877D01*
X25337Y78000D01*
X25189Y79123D01*
X24756Y80169D01*
X24067Y81067D01*
X23168Y81756D01*
X22122Y82189D01*
X21000Y82337D01*
X19877Y82189D01*
X18832Y81756D01*
X17933Y81067D01*
X17244Y80169D01*
X16811Y79123D01*
X16663Y78000D01*
X16811Y76877D01*
X17033Y76340D01*
X10181Y69488D01*
X9827Y68958D01*
X9703Y68334D01*
Y65800D01*
X7200D01*
Y57200D01*
X15800D01*
Y65800D01*
X12965D01*
Y67658D01*
X19340Y74033D01*
X19877Y73811D01*
X21000Y73663D01*
X22122Y73811D01*
X22915Y74139D01*
X24839Y72214D01*
Y62340D01*
X24944Y61814D01*
X25242Y61367D01*
X28650Y57960D01*
Y55725D01*
X28788Y55029D01*
X29182Y54439D01*
X29335Y54337D01*
X29183Y53837D01*
X15127D01*
X14567Y54567D01*
X13668Y55256D01*
X12622Y55689D01*
X11500Y55837D01*
X10378Y55689D01*
X9331Y55256D01*
X8433Y54567D01*
X7744Y53669D01*
X7311Y52622D01*
X7163Y51500D01*
X7311Y50378D01*
X7744Y49332D01*
X8433Y48433D01*
X9331Y47744D01*
X10378Y47311D01*
X11500Y47163D01*
X12622Y47311D01*
X13668Y47744D01*
X14567Y48433D01*
X15256Y49332D01*
X15689Y50378D01*
X15782Y51084D01*
X57377D01*
X57904Y51189D01*
X58350Y51487D01*
X59172Y52309D01*
X59332Y52292D01*
X59717Y51763D01*
X59665Y51500D01*
X59799Y50827D01*
X59800Y50739D01*
X59544Y50327D01*
X58166D01*
X57640Y50222D01*
X57193Y49923D01*
X53527Y46257D01*
X53228Y45810D01*
X53124Y45283D01*
Y43870D01*
X52670Y43567D01*
X52370Y43118D01*
X52123Y43103D01*
X51842Y43160D01*
X51474Y43711D01*
X50903Y44093D01*
X50250Y44223D01*
Y37701D01*
X48750D01*
Y44223D01*
X48097Y44093D01*
X47526Y43711D01*
X47285Y43351D01*
X46715D01*
X46474Y43711D01*
X45903Y44093D01*
X45250Y44223D01*
Y37701D01*
X44500D01*
Y36951D01*
X42010D01*
Y32937D01*
X42144Y32263D01*
X42371Y31923D01*
X42104Y31423D01*
X36610D01*
X36488Y31603D01*
X36388Y31923D01*
X36668Y32341D01*
X36786Y32937D01*
Y42465D01*
X36668Y43061D01*
X36330Y43567D01*
X35824Y43904D01*
X35228Y44023D01*
X33772D01*
X33176Y43904D01*
X32670Y43567D01*
X32332Y43061D01*
X32214Y42465D01*
Y32937D01*
X32332Y32341D01*
X32670Y31835D01*
X33176Y31498D01*
X33378Y31457D01*
Y30887D01*
X33378Y30887D01*
X33464Y30458D01*
X33554Y30323D01*
X33287Y29823D01*
X29085D01*
X28947Y30515D01*
X28555Y31102D01*
X27968Y31495D01*
X27275Y31632D01*
X25325D01*
X24632Y31495D01*
X24045Y31102D01*
X23653Y30515D01*
X23515Y29822D01*
Y27472D01*
X23653Y26780D01*
X24045Y26193D01*
X24632Y25800D01*
X25325Y25663D01*
X27275D01*
X27968Y25800D01*
X28555Y26193D01*
X28947Y26780D01*
X29085Y27472D01*
Y27580D01*
X32077D01*
X32344Y27079D01*
X32332Y27061D01*
X32214Y26465D01*
Y16937D01*
X32332Y16341D01*
X32670Y15835D01*
X33124Y15532D01*
Y14881D01*
X32804Y14403D01*
X32665Y13701D01*
X32804Y12999D01*
X33202Y12403D01*
X33798Y12005D01*
X34500Y11866D01*
X35202Y12005D01*
X35798Y12403D01*
X36196Y12999D01*
X36335Y13701D01*
X36196Y14403D01*
X35876Y14881D01*
Y15532D01*
X36330Y15835D01*
X36668Y16341D01*
X36745Y16729D01*
X37255D01*
X37332Y16341D01*
X37670Y15835D01*
X38124Y15532D01*
Y14881D01*
X37804Y14403D01*
X37665Y13701D01*
X37804Y12999D01*
X38202Y12403D01*
X38798Y12005D01*
X39500Y11866D01*
X40202Y12005D01*
X40798Y12403D01*
X41196Y12999D01*
X41335Y13701D01*
X41196Y14403D01*
X40876Y14881D01*
Y15532D01*
X41330Y15835D01*
X41668Y16341D01*
X41745Y16729D01*
X42255D01*
X42332Y16341D01*
X42670Y15835D01*
X43118Y15536D01*
X43192Y15188D01*
X43202Y14999D01*
X42804Y14403D01*
X42664Y13701D01*
X42804Y12999D01*
X43202Y12403D01*
X43797Y12005D01*
X44499Y11866D01*
X45202Y12005D01*
X45797Y12403D01*
X46195Y12999D01*
X46335Y13701D01*
X46195Y14403D01*
X45797Y14999D01*
X45807Y15188D01*
X45881Y15536D01*
X46330Y15835D01*
X46668Y16341D01*
X46745Y16729D01*
X47255D01*
X47332Y16341D01*
X47670Y15835D01*
X48124Y15532D01*
Y14881D01*
X47804Y14403D01*
X47665Y13701D01*
X47804Y12999D01*
X48202Y12403D01*
X48798Y12005D01*
X49500Y11866D01*
X50202Y12005D01*
X50798Y12403D01*
X51196Y12999D01*
X51335Y13701D01*
X51196Y14403D01*
X50876Y14881D01*
Y15532D01*
X51330Y15835D01*
X51668Y16341D01*
X51745Y16729D01*
X52255D01*
X52332Y16341D01*
X52670Y15835D01*
X53124Y15532D01*
Y14881D01*
X52804Y14403D01*
X52665Y13701D01*
X52804Y12999D01*
X53202Y12403D01*
X53798Y12005D01*
X54500Y11866D01*
X55202Y12005D01*
X55798Y12403D01*
X56196Y12999D01*
X56335Y13701D01*
X56196Y14403D01*
X55876Y14881D01*
Y15532D01*
X56330Y15835D01*
X56668Y16341D01*
X56786Y16937D01*
Y26168D01*
X57286Y26375D01*
X60752Y22909D01*
X60715Y22723D01*
Y20372D01*
X60853Y19680D01*
X61245Y19093D01*
X61832Y18700D01*
X62525Y18563D01*
X64475D01*
X65168Y18700D01*
X65755Y19093D01*
X66147Y19680D01*
X66285Y20372D01*
Y22586D01*
X67801Y24102D01*
X68099Y24548D01*
X68154Y24824D01*
X68651Y24923D01*
X68746Y24874D01*
X69051Y24670D01*
Y10014D01*
X68571Y9693D01*
X68174Y9100D01*
X68035Y8400D01*
Y4600D01*
X68174Y3900D01*
X68571Y3307D01*
X69164Y2910D01*
X69864Y2771D01*
X71852D01*
X72552Y2910D01*
X73146Y3307D01*
X73542Y3900D01*
X73682Y4600D01*
Y8400D01*
X73542Y9100D01*
X73146Y9693D01*
X72552Y10090D01*
X71852Y10229D01*
X71294D01*
Y24901D01*
X71298Y24903D01*
X71696Y25499D01*
X71835Y26201D01*
X71696Y26903D01*
X71578Y27079D01*
X71845Y27580D01*
X75563D01*
X75830Y27079D01*
X75814Y27055D01*
X75695Y26456D01*
Y16947D01*
X75814Y16347D01*
X76154Y15838D01*
X76663Y15498D01*
X77263Y15379D01*
X78737D01*
X79337Y15498D01*
X79846Y15838D01*
X80186Y16347D01*
X80245Y16645D01*
X80755D01*
X80814Y16347D01*
X81154Y15838D01*
X81663Y15498D01*
X82262Y15379D01*
X83737D01*
X84337Y15498D01*
X84846Y15838D01*
X85186Y16347D01*
X85245Y16645D01*
X85755D01*
X85814Y16347D01*
X86154Y15838D01*
X86663Y15498D01*
X87262Y15379D01*
X88737D01*
X89337Y15498D01*
X89846Y15838D01*
X90186Y16347D01*
X90245Y16645D01*
X90755D01*
X90814Y16347D01*
X91154Y15838D01*
X91663Y15498D01*
X92263Y15379D01*
X93738D01*
X94337Y15498D01*
X94846Y15838D01*
X95186Y16347D01*
X95245Y16645D01*
X95755D01*
X95814Y16347D01*
X96154Y15838D01*
X96663Y15498D01*
X97263Y15379D01*
X98738D01*
X99337Y15498D01*
X99846Y15838D01*
X100186Y16347D01*
X100253Y16687D01*
X100763D01*
X100832Y16341D01*
X101170Y15835D01*
X101675Y15498D01*
X101878Y15457D01*
Y7116D01*
X101702Y6999D01*
X101304Y6403D01*
X101165Y5701D01*
X101304Y4999D01*
X101702Y4403D01*
X102298Y4005D01*
X103000Y3866D01*
X103702Y4005D01*
X104298Y4403D01*
X104696Y4999D01*
X104835Y5701D01*
X104696Y6403D01*
X104298Y6999D01*
X104122Y7116D01*
Y15457D01*
X104324Y15498D01*
X104830Y15835D01*
X105168Y16341D01*
X105245Y16729D01*
X105755D01*
X105832Y16341D01*
X106170Y15835D01*
X106378Y15696D01*
Y8116D01*
X106202Y7999D01*
X105804Y7403D01*
X105665Y6701D01*
X105804Y5999D01*
X106202Y5403D01*
X106798Y5005D01*
X107500Y4866D01*
X108202Y5005D01*
X108798Y5403D01*
X109196Y5999D01*
X109335Y6701D01*
X109196Y7403D01*
X108798Y7999D01*
X108622Y8116D01*
Y15379D01*
X108728D01*
X109325Y15498D01*
X109830Y15835D01*
X110168Y16341D01*
X110245Y16729D01*
X110755D01*
X110832Y16341D01*
X111170Y15835D01*
X111676Y15498D01*
X111878Y15457D01*
Y10416D01*
X111702Y10299D01*
X111304Y9703D01*
X111165Y9001D01*
X111304Y8299D01*
X111702Y7703D01*
X112298Y7305D01*
X113000Y7166D01*
X113702Y7305D01*
X114298Y7703D01*
X114696Y8299D01*
X114835Y9001D01*
X114696Y9703D01*
X114298Y10299D01*
X114122Y10416D01*
Y15457D01*
X114324Y15498D01*
X114830Y15835D01*
X115168Y16341D01*
X115245Y16729D01*
X115755D01*
X115832Y16341D01*
X116170Y15835D01*
X116675Y15498D01*
X116878Y15457D01*
Y12316D01*
X116702Y12199D01*
X116304Y11603D01*
X116165Y10901D01*
X116304Y10199D01*
X116702Y9603D01*
X117298Y9205D01*
X118000Y9066D01*
X118702Y9205D01*
X119298Y9603D01*
X119696Y10199D01*
X119835Y10901D01*
X119696Y11603D01*
X119298Y12199D01*
X119122Y12316D01*
Y15457D01*
X119325Y15498D01*
X119830Y15835D01*
X120168Y16341D01*
X120245Y16729D01*
X120755D01*
X120832Y16341D01*
X121170Y15835D01*
X121676Y15498D01*
X121977Y15438D01*
Y14482D01*
X121800Y14365D01*
X121403Y13769D01*
X121263Y13067D01*
X121403Y12365D01*
X121800Y11769D01*
X122396Y11372D01*
X123098Y11232D01*
X123801Y11372D01*
X124396Y11769D01*
X124794Y12365D01*
X124934Y13067D01*
X124794Y13769D01*
X124396Y14365D01*
X124220Y14482D01*
Y15477D01*
X124325Y15498D01*
X124830Y15835D01*
X125168Y16341D01*
X125286Y16937D01*
Y26465D01*
X125168Y27061D01*
X124830Y27567D01*
X124325Y27904D01*
X123728Y28023D01*
X122272D01*
X121676Y27904D01*
X121170Y27567D01*
X120832Y27061D01*
X120755Y26673D01*
X120245D01*
X120168Y27061D01*
X119830Y27567D01*
X119325Y27904D01*
X118728Y28023D01*
X117272D01*
X116675Y27904D01*
X116170Y27567D01*
X115832Y27061D01*
X115755Y26673D01*
X115245D01*
X115168Y27061D01*
X114830Y27567D01*
X114324Y27904D01*
X113728Y28023D01*
X112272D01*
X111676Y27904D01*
X111170Y27567D01*
X110832Y27061D01*
X110755Y26673D01*
X110245D01*
X110168Y27061D01*
X109830Y27567D01*
X109325Y27904D01*
X109122Y27945D01*
Y35034D01*
X109298Y35151D01*
X109696Y35747D01*
X109835Y36449D01*
X109696Y37151D01*
X109298Y37747D01*
X108702Y38145D01*
X108000Y38284D01*
X107298Y38145D01*
X106702Y37747D01*
X106304Y37151D01*
X106165Y36449D01*
X106304Y35747D01*
X106702Y35151D01*
X106878Y35034D01*
Y27945D01*
X106676Y27904D01*
X106170Y27567D01*
X105832Y27061D01*
X105755Y26673D01*
X105245D01*
X105168Y27061D01*
X104830Y27567D01*
X104324Y27904D01*
X103728Y28023D01*
X102272D01*
X102076Y27984D01*
X101830Y28445D01*
X103793Y30408D01*
X103793Y30408D01*
X104036Y30772D01*
X104122Y31201D01*
Y31457D01*
X104324Y31498D01*
X104830Y31835D01*
X105168Y32341D01*
X105286Y32937D01*
Y39116D01*
X105727Y39351D01*
X105798Y39304D01*
X106500Y39165D01*
X107202Y39304D01*
X107798Y39702D01*
X108196Y40298D01*
X108335Y41000D01*
X108196Y41702D01*
X107798Y42298D01*
X107202Y42696D01*
X106500Y42835D01*
X105798Y42696D01*
X105756Y42668D01*
X105200Y42898D01*
X105168Y43061D01*
X104830Y43567D01*
X104324Y43904D01*
X103728Y44023D01*
X102272D01*
X101675Y43904D01*
X101170Y43567D01*
X100883Y43137D01*
X100518Y43132D01*
X100350Y43170D01*
X99990Y43708D01*
X99415Y44092D01*
X98750Y44225D01*
Y37701D01*
Y31177D01*
X99415Y31310D01*
X99990Y31694D01*
X100350Y32232D01*
X100518Y32270D01*
X100883Y32265D01*
X101170Y31835D01*
X101273Y31767D01*
X101336Y31123D01*
X100035Y29823D01*
X59274D01*
X58002Y31094D01*
X57638Y31337D01*
X57209Y31423D01*
X57209Y31423D01*
X56610D01*
X56488Y31603D01*
X56388Y31923D01*
X56668Y32341D01*
X56786Y32937D01*
Y42465D01*
X56668Y43061D01*
X56330Y43567D01*
X55876Y43870D01*
Y44713D01*
X58737Y47574D01*
X59400D01*
X59635Y47133D01*
X59559Y47018D01*
X59406Y46248D01*
Y46023D01*
X62594D01*
Y45273D01*
X63345D01*
Y42284D01*
X63770D01*
X64321Y42394D01*
X64457Y41929D01*
X63964Y41599D01*
X63634Y41106D01*
X63518Y40523D01*
Y39547D01*
X65531D01*
Y38547D01*
X63518D01*
Y37571D01*
X63634Y36988D01*
X63964Y36495D01*
X64457Y36165D01*
X65039Y36049D01*
X65460D01*
X65758Y35549D01*
X65690Y35208D01*
Y32256D01*
X65791Y31752D01*
X66076Y31324D01*
X66504Y31039D01*
X67008Y30938D01*
X67992D01*
X68496Y31039D01*
X68924Y31324D01*
X69209Y31752D01*
X69288Y32146D01*
X70906D01*
X71202Y31702D01*
X71798Y31304D01*
X72500Y31165D01*
X73202Y31304D01*
X73798Y31702D01*
X74196Y32298D01*
X74335Y33000D01*
X74196Y33702D01*
X73798Y34298D01*
X73202Y34696D01*
X72500Y34835D01*
X71798Y34696D01*
X71339Y34389D01*
X69310D01*
Y35208D01*
X69209Y35713D01*
X69182Y35753D01*
X69449Y36253D01*
X69961D01*
X70465Y36354D01*
X70892Y36639D01*
X71178Y37067D01*
X71278Y37571D01*
Y40523D01*
X71178Y41028D01*
X70892Y41455D01*
X70499Y41717D01*
Y42495D01*
X71155Y42626D01*
X71742Y43018D01*
X72134Y43605D01*
X72272Y44298D01*
Y45579D01*
X106900D01*
X106900Y45579D01*
X107329Y45665D01*
X107693Y45908D01*
X108717Y46932D01*
X108798Y46916D01*
X111148D01*
X111841Y47054D01*
X112428Y47446D01*
X112820Y48033D01*
X112958Y48726D01*
Y50676D01*
X112820Y51369D01*
X112621Y51667D01*
X112888Y52167D01*
X113751D01*
X114019Y51667D01*
X113819Y51369D01*
X113681Y50676D01*
Y48726D01*
X113819Y48033D01*
X114211Y47446D01*
X114799Y47054D01*
X115491Y46916D01*
X117841D01*
X118534Y47054D01*
X119121Y47446D01*
X119513Y48033D01*
X119651Y48726D01*
Y50676D01*
X119513Y51369D01*
X119314Y51667D01*
X119581Y52167D01*
X121624D01*
Y43870D01*
X121170Y43567D01*
X120870Y43118D01*
X120623Y43103D01*
X120343Y43160D01*
X119974Y43711D01*
X119403Y44093D01*
X118750Y44223D01*
Y37701D01*
Y31179D01*
X119403Y31309D01*
X119974Y31691D01*
X120343Y32242D01*
X120623Y32299D01*
X120870Y32284D01*
X121170Y31835D01*
X121676Y31498D01*
X122272Y31379D01*
X123728D01*
X124325Y31498D01*
X124830Y31835D01*
X125168Y32341D01*
X125286Y32937D01*
Y42465D01*
X125168Y43061D01*
X124830Y43567D01*
X124376Y43870D01*
Y53544D01*
Y55710D01*
X127273Y58606D01*
X127273Y58606D01*
X127572Y59053D01*
X127676Y59580D01*
Y70549D01*
X127572Y71075D01*
X127273Y71522D01*
X119822Y78973D01*
X119376Y79272D01*
X118849Y79376D01*
X115300D01*
Y82300D01*
X106700D01*
Y75923D01*
X106238Y75732D01*
X105161Y76809D01*
X105189Y76877D01*
X105337Y78000D01*
X105189Y79123D01*
X104756Y80169D01*
X104067Y81067D01*
X103169Y81756D01*
X102122Y82189D01*
X101000Y82337D01*
D02*
G37*
G36*
X30703Y66803D02*
X30469D01*
X29695Y66649D01*
X29038Y66211D01*
X28600Y65554D01*
X28446Y64780D01*
Y64349D01*
X30703D01*
Y66803D01*
D02*
G37*
G36*
X88913Y60276D02*
X85908D01*
Y58254D01*
X88913D01*
Y60276D01*
D02*
G37*
G36*
X84408D02*
X81402D01*
Y58254D01*
X84408D01*
Y60276D01*
D02*
G37*
G36*
X88913Y56754D02*
X85908D01*
Y54732D01*
X88913D01*
Y56754D01*
D02*
G37*
G36*
X84408D02*
X81402D01*
Y54732D01*
X84408D01*
Y56754D01*
D02*
G37*
G36*
X70507Y54904D02*
X68250D01*
Y52449D01*
X68484D01*
X69258Y52603D01*
X69915Y53042D01*
X70353Y53698D01*
X70507Y54473D01*
Y54904D01*
D02*
G37*
G36*
X66750D02*
X64493D01*
Y54473D01*
X64647Y53698D01*
X65085Y53042D01*
X65741Y52603D01*
X66516Y52449D01*
X66750D01*
Y54904D01*
D02*
G37*
G36*
X61844Y44523D02*
X59406D01*
Y44298D01*
X59559Y43527D01*
X59996Y42874D01*
X60649Y42437D01*
X61419Y42284D01*
X61844D01*
Y44523D01*
D02*
G37*
G36*
X112250Y44223D02*
X111597Y44093D01*
X111026Y43711D01*
X110644Y43139D01*
X110510Y42465D01*
Y38451D01*
X112250D01*
Y44223D01*
D02*
G37*
G36*
X43750D02*
X43097Y44093D01*
X42526Y43711D01*
X42144Y43139D01*
X42010Y42465D01*
Y38451D01*
X43750D01*
Y44223D01*
D02*
G37*
G36*
X77250Y44225D02*
X76585Y44092D01*
X76010Y43708D01*
X75626Y43133D01*
X75491Y42456D01*
Y38451D01*
X77250D01*
Y44225D01*
D02*
G37*
G36*
X11500Y45837D02*
X10378Y45689D01*
X9331Y45256D01*
X8433Y44567D01*
X7744Y43668D01*
X7311Y42623D01*
X7163Y41500D01*
X7311Y40378D01*
X7744Y39331D01*
X8433Y38433D01*
X9331Y37744D01*
X10378Y37311D01*
X11500Y37163D01*
X12622Y37311D01*
X13668Y37744D01*
X14567Y38433D01*
X15256Y39331D01*
X15689Y40378D01*
X15837Y41500D01*
X15689Y42623D01*
X15256Y43668D01*
X14567Y44567D01*
X13668Y45256D01*
X12622Y45689D01*
X11500Y45837D01*
D02*
G37*
G36*
X113750Y44223D02*
Y37701D01*
Y31179D01*
X114403Y31309D01*
X114974Y31691D01*
X115215Y32051D01*
X115785D01*
X116026Y31691D01*
X116597Y31309D01*
X117250Y31179D01*
Y37701D01*
Y44223D01*
X116597Y44093D01*
X116026Y43711D01*
X115785Y43351D01*
X115215D01*
X114974Y43711D01*
X114403Y44093D01*
X113750Y44223D01*
D02*
G37*
G36*
X112250Y36951D02*
X110510D01*
Y32937D01*
X110644Y32263D01*
X111026Y31691D01*
X111597Y31309D01*
X112250Y31179D01*
Y36951D01*
D02*
G37*
G36*
X93750Y44225D02*
Y37701D01*
Y31177D01*
X94415Y31310D01*
X94990Y31694D01*
X95205Y32016D01*
X95795D01*
X96010Y31694D01*
X96585Y31310D01*
X97250Y31177D01*
Y37701D01*
Y44225D01*
X96585Y44092D01*
X96010Y43708D01*
X95795Y43386D01*
X95205D01*
X94990Y43708D01*
X94415Y44092D01*
X93750Y44225D01*
D02*
G37*
G36*
X88750D02*
Y37701D01*
Y31177D01*
X89415Y31310D01*
X89990Y31694D01*
X90205Y32016D01*
X90795D01*
X91010Y31694D01*
X91585Y31310D01*
X92250Y31177D01*
Y37701D01*
Y44225D01*
X91585Y44092D01*
X91010Y43708D01*
X90795Y43386D01*
X90205D01*
X89990Y43708D01*
X89415Y44092D01*
X88750Y44225D01*
D02*
G37*
G36*
X83750D02*
Y37701D01*
Y31177D01*
X84415Y31310D01*
X84990Y31694D01*
X85205Y32016D01*
X85795D01*
X86010Y31694D01*
X86585Y31310D01*
X87250Y31177D01*
Y37701D01*
Y44225D01*
X86585Y44092D01*
X86010Y43708D01*
X85795Y43386D01*
X85205D01*
X84990Y43708D01*
X84415Y44092D01*
X83750Y44225D01*
D02*
G37*
G36*
X78750D02*
Y37701D01*
Y31177D01*
X79415Y31310D01*
X79990Y31694D01*
X80205Y32016D01*
X80795D01*
X81010Y31694D01*
X81585Y31310D01*
X82250Y31177D01*
Y37701D01*
Y44225D01*
X81585Y44092D01*
X81010Y43708D01*
X80795Y43386D01*
X80205D01*
X79990Y43708D01*
X79415Y44092D01*
X78750Y44225D01*
D02*
G37*
G36*
X77250Y36951D02*
X75491D01*
Y32947D01*
X75626Y32269D01*
X76010Y31694D01*
X76585Y31310D01*
X77250Y31177D01*
Y36951D01*
D02*
G37*
G36*
X11500Y35837D02*
X10378Y35689D01*
X9331Y35256D01*
X8433Y34567D01*
X7744Y33669D01*
X7311Y32623D01*
X7163Y31500D01*
X7311Y30378D01*
X7744Y29331D01*
X8433Y28433D01*
X9331Y27744D01*
X10378Y27311D01*
X11500Y27163D01*
X12622Y27311D01*
X13668Y27744D01*
X14567Y28433D01*
X15256Y29331D01*
X15689Y30378D01*
X15837Y31500D01*
X15689Y32623D01*
X15256Y33669D01*
X14567Y34567D01*
X13668Y35256D01*
X12622Y35689D01*
X11500Y35837D01*
D02*
G37*
G36*
X12250Y25940D02*
Y22250D01*
X15940D01*
X15884Y22675D01*
X15431Y23769D01*
X14709Y24709D01*
X13769Y25431D01*
X12675Y25884D01*
X12250Y25940D01*
D02*
G37*
G36*
X10750D02*
X10325Y25884D01*
X9231Y25431D01*
X8291Y24709D01*
X7569Y23769D01*
X7116Y22675D01*
X7060Y22250D01*
X10750D01*
Y25940D01*
D02*
G37*
G36*
X27275Y24939D02*
X25325D01*
X24632Y24802D01*
X24045Y24409D01*
X23653Y23822D01*
X23515Y23130D01*
Y22875D01*
X21254D01*
X20824Y22790D01*
X20460Y22547D01*
X20460Y22547D01*
X11475Y13561D01*
X11231Y13197D01*
X11146Y12768D01*
X11146Y12768D01*
Y10229D01*
X10888D01*
X10188Y10090D01*
X9594Y9693D01*
X9198Y9100D01*
X9059Y8400D01*
Y4600D01*
X9198Y3900D01*
X9594Y3307D01*
X10188Y2910D01*
X10888Y2771D01*
X12876D01*
X13576Y2910D01*
X14169Y3307D01*
X14566Y3900D01*
X14705Y4600D01*
Y8400D01*
X14566Y9100D01*
X14169Y9693D01*
X13576Y10090D01*
X13389Y10127D01*
Y12303D01*
X21718Y20632D01*
X23545D01*
X23653Y20087D01*
X24045Y19500D01*
X24632Y19107D01*
X25325Y18970D01*
X27275D01*
X27968Y19107D01*
X28555Y19500D01*
X28947Y20087D01*
X29085Y20780D01*
Y23130D01*
X28947Y23822D01*
X28555Y24409D01*
X27968Y24802D01*
X27275Y24939D01*
D02*
G37*
G36*
X15940Y20750D02*
X12250D01*
Y17060D01*
X12675Y17116D01*
X13769Y17569D01*
X14709Y18291D01*
X15431Y19231D01*
X15884Y20325D01*
X15940Y20750D01*
D02*
G37*
G36*
X10750D02*
X7060D01*
X7116Y20325D01*
X7569Y19231D01*
X8291Y18291D01*
X9231Y17569D01*
X10325Y17116D01*
X10750Y17060D01*
Y20750D01*
D02*
G37*
G36*
X20593Y10433D02*
X20348D01*
Y7250D01*
X22626D01*
Y8400D01*
X22471Y9178D01*
X22030Y9837D01*
X21371Y10278D01*
X20593Y10433D01*
D02*
G37*
G36*
X18848D02*
X18604D01*
X17826Y10278D01*
X17167Y9837D01*
X16726Y9178D01*
X16571Y8400D01*
Y7250D01*
X18848D01*
Y10433D01*
D02*
G37*
G36*
X64475Y17839D02*
X62525D01*
X61832Y17702D01*
X61245Y17309D01*
X60853Y16722D01*
X60715Y16030D01*
Y13680D01*
X60853Y12987D01*
X61245Y12400D01*
X61832Y12008D01*
X62258Y11923D01*
Y10229D01*
X62148D01*
X61448Y10090D01*
X60854Y9693D01*
X60458Y9100D01*
X60318Y8400D01*
Y4600D01*
X60458Y3900D01*
X60854Y3307D01*
X61448Y2910D01*
X62148Y2771D01*
X64136D01*
X64836Y2910D01*
X65429Y3307D01*
X65826Y3900D01*
X65965Y4600D01*
Y8400D01*
X65826Y9100D01*
X65429Y9693D01*
X64836Y10090D01*
X64502Y10156D01*
Y11875D01*
X65168Y12008D01*
X65755Y12400D01*
X66147Y12987D01*
X66285Y13680D01*
Y16030D01*
X66147Y16722D01*
X65755Y17309D01*
X65168Y17702D01*
X64475Y17839D01*
D02*
G37*
G36*
X22626Y5750D02*
X20348D01*
Y2567D01*
X20593D01*
X21371Y2722D01*
X22030Y3163D01*
X22471Y3822D01*
X22626Y4600D01*
Y5750D01*
D02*
G37*
G36*
X18848D02*
X16571D01*
Y4600D01*
X16726Y3822D01*
X17167Y3163D01*
X17826Y2722D01*
X18604Y2567D01*
X18848D01*
Y5750D01*
D02*
G37*
%LPD*%
G36*
X123045Y71857D02*
X122853Y71395D01*
X122025D01*
X121332Y71258D01*
X120745Y70865D01*
X120353Y70278D01*
X120288Y69949D01*
X112021D01*
X108732Y73238D01*
X108923Y73700D01*
X115300D01*
Y76624D01*
X118279D01*
X123045Y71857D01*
D02*
G37*
G36*
X51122Y64468D02*
Y60532D01*
X48366Y58563D01*
X45217D01*
X42461Y60532D01*
Y64468D01*
X45217Y66437D01*
X48366D01*
X51122Y64468D01*
D02*
G37*
G36*
X120215Y60543D02*
X120353Y59850D01*
X120745Y59263D01*
X121332Y58871D01*
X122025Y58733D01*
X122853D01*
X123045Y58271D01*
X122027Y57253D01*
X121728Y56806D01*
X121624Y56280D01*
Y54920D01*
X107505D01*
X107335Y55420D01*
X107661Y55670D01*
X108073Y56207D01*
X108146Y56382D01*
X112820D01*
X112820Y56382D01*
X113249Y56468D01*
X113613Y56711D01*
X117498Y60596D01*
X120215D01*
Y60543D01*
D02*
G37*
D13*
X106900Y46701D02*
X109900Y49701D01*
X69287Y45273D02*
X69744D01*
X71173Y46701D02*
X106900D01*
X69744Y45273D02*
X71173Y46701D01*
X12268Y6886D02*
Y12768D01*
X21254Y21754D02*
X25300D01*
X12268Y12768D02*
X21254Y21754D01*
X117034Y61718D02*
X123000D01*
X112820Y57504D02*
X117034Y61718D01*
X104842Y57504D02*
X112820D01*
X111556Y68828D02*
X123000D01*
X102759Y21460D02*
X103000Y21701D01*
Y5701D02*
Y21218D01*
Y39922D02*
X103939Y40861D01*
X108000Y21701D02*
Y36449D01*
X113000Y9001D02*
Y21701D01*
X123000D02*
X123098Y21603D01*
X102759Y21460D02*
X103000Y21218D01*
X103939Y40861D02*
X106361D01*
X118000Y10901D02*
Y21701D01*
X106361Y40861D02*
X106500Y41000D01*
X107500Y6701D02*
Y21201D01*
X108000Y21701D01*
X123098Y13067D02*
Y21603D01*
X103000Y31201D02*
Y39922D01*
X26300Y28701D02*
X56546D01*
X69287Y45273D02*
X69378Y45182D01*
Y39138D02*
Y45182D01*
Y39138D02*
X69468Y39047D01*
X67500Y33732D02*
X67964Y33268D01*
X72232D01*
X72500Y33000D01*
X101000Y78000D02*
X102384D01*
X111556Y68828D01*
X100500Y28701D02*
X103000Y31201D01*
X70172Y7269D02*
Y26029D01*
X57209Y30301D02*
X58809Y28701D01*
X70000Y26201D02*
X70172Y26029D01*
X58809Y28701D02*
X100500D01*
X35086Y30301D02*
X57209D01*
X34500Y30887D02*
X35086Y30301D01*
X34500Y30887D02*
Y37701D01*
X44500Y21701D02*
X44500Y21701D01*
X44500Y13701D02*
Y21701D01*
X44499Y13701D02*
X44500Y13701D01*
X56546Y28701D02*
X63222Y22026D01*
X63260Y6701D02*
X63380Y6821D01*
Y14735D02*
X63500Y14855D01*
X70172Y7269D02*
X70740Y6701D01*
X63380Y6821D02*
Y14735D01*
X11882Y6500D02*
X12268Y6886D01*
D32*
X31453Y56906D02*
D03*
Y63599D02*
D03*
X60500Y55654D02*
D03*
Y62347D02*
D03*
X67500Y55654D02*
D03*
Y62347D02*
D03*
D33*
X63142Y6500D02*
D03*
X70858D02*
D03*
X11882D02*
D03*
X19598D02*
D03*
D34*
X34500Y21701D02*
D03*
X39500D02*
D03*
X44500D02*
D03*
X34500Y37701D02*
D03*
X44500D02*
D03*
X49500Y21701D02*
D03*
X54500D02*
D03*
X49500Y37701D02*
D03*
X54500D02*
D03*
X103000Y21701D02*
D03*
Y37701D02*
D03*
X108000Y21701D02*
D03*
X113000D02*
D03*
X123000D02*
D03*
X118000D02*
D03*
Y37701D02*
D03*
X113000D02*
D03*
X123000D02*
D03*
D35*
X78000Y21701D02*
D03*
X83000D02*
D03*
X88000D02*
D03*
X93000D02*
D03*
X98000D02*
D03*
X78000Y37701D02*
D03*
X83000D02*
D03*
X88000D02*
D03*
X93000D02*
D03*
X98000D02*
D03*
D36*
X65531Y39047D02*
D03*
X69468D02*
D03*
X67500Y33732D02*
D03*
D37*
X63500Y14855D02*
D03*
Y21547D02*
D03*
X26300Y21955D02*
D03*
Y28648D02*
D03*
X123000Y61718D02*
D03*
Y68411D02*
D03*
D38*
X109973Y49701D02*
D03*
X116666D02*
D03*
X62594Y45273D02*
D03*
X69287D02*
D03*
D39*
X40886Y56595D02*
D03*
Y68405D02*
D03*
X52697Y56595D02*
D03*
Y68405D02*
D03*
D40*
X42264Y62500D02*
D03*
X51319D02*
D03*
D41*
X40886Y56595D02*
X45357D01*
X11334Y52676D02*
X11550Y52461D01*
X92507Y48950D02*
X97101Y53544D01*
X58166Y48950D02*
X92507D01*
X97101Y53544D02*
X116604D01*
X123000D01*
X116666Y49701D02*
Y53482D01*
X116604Y53544D02*
X116666Y53482D01*
X123000Y37701D02*
Y53544D01*
Y56280D01*
X126300Y59580D01*
X111000Y78000D02*
X118849D01*
X126300Y70549D01*
Y59580D02*
Y70549D01*
X53942Y56124D02*
X60500D01*
Y55654D02*
X61328Y54826D01*
Y51672D02*
Y54826D01*
Y51672D02*
X61500Y51500D01*
X67500Y62347D02*
Y62543D01*
X61638Y68405D02*
X67500Y62543D01*
X52697Y68405D02*
X61638D01*
X53364Y62423D02*
X60423D01*
X53288Y62500D02*
X53364Y62423D01*
X60423D02*
X60500Y62347D01*
X67500Y55654D02*
Y55850D01*
X62275Y61076D02*
X67500Y55850D01*
X61701Y61076D02*
X62275D01*
X60500Y62276D02*
X61701Y61076D01*
X60500Y62276D02*
Y62347D01*
X54500Y45283D02*
X58166Y48950D01*
X54500Y37701D02*
Y45283D01*
X57377Y52461D02*
X60500Y55584D01*
X11550Y52461D02*
X57377D01*
X60500Y55584D02*
Y55654D01*
X83000Y37701D02*
X88000D01*
X113000D02*
X118000D01*
X78000D02*
X83000D01*
X88000D02*
X93000D01*
X98000D01*
X21000Y78000D02*
X26216Y72784D01*
X66828Y26229D02*
X67000Y26401D01*
X66828Y25075D02*
Y26229D01*
X63500Y21747D02*
X66828Y25075D01*
X63500Y21547D02*
Y21747D01*
X53471Y56595D02*
X53942Y56124D01*
X40520Y63050D02*
X41070Y62500D01*
X32002Y63050D02*
X40520D01*
X31453Y63599D02*
X32002Y63050D01*
X31453Y56906D02*
Y57103D01*
X26216Y62340D02*
X31453Y57103D01*
X26216Y62340D02*
Y72784D01*
X41504Y56750D02*
X41660Y56595D01*
X31609Y56750D02*
X41504D01*
X31453Y56906D02*
X31609Y56750D01*
X40886Y68405D02*
X41514Y69033D01*
X45307D01*
X45774Y69500D01*
X46017D01*
X20480Y6701D02*
X20681Y6500D01*
X34175Y21376D02*
X34500Y21051D01*
X34175Y21376D02*
X34500Y21701D01*
X39250Y21451D02*
X39500Y21201D01*
X39250Y21451D02*
X39500Y21701D01*
X49000Y21201D02*
X49700Y20501D01*
X49500Y20301D02*
X49700Y20501D01*
X49000Y21201D02*
X49500Y21701D01*
X34500Y14201D02*
Y21051D01*
X39500Y13701D02*
Y21201D01*
X49500Y14701D02*
Y20301D01*
X54500Y14201D02*
Y21701D01*
X44500Y37701D02*
X49500D01*
D42*
X11334Y62676D02*
Y68334D01*
X21000Y78000D01*
D43*
X11500Y41500D02*
D03*
Y51500D02*
D03*
Y31500D02*
D03*
Y21500D02*
D03*
X21000Y88000D02*
D03*
X31000D02*
D03*
X41000D02*
D03*
X51000D02*
D03*
X61000D02*
D03*
X71000D02*
D03*
X81000D02*
D03*
X91000D02*
D03*
X101000D02*
D03*
X111000D02*
D03*
X21000Y78000D02*
D03*
X31000D02*
D03*
X41000D02*
D03*
X51000D02*
D03*
X61000D02*
D03*
X71000D02*
D03*
X81000D02*
D03*
X91000D02*
D03*
X101000D02*
D03*
D44*
X11500Y61500D02*
D03*
D45*
X111000Y78000D02*
D03*
D46*
X85158Y70496D02*
D03*
X95000D02*
D03*
X104842D02*
D03*
Y57504D02*
D03*
X95000D02*
D03*
D47*
X85158D02*
D03*
D48*
X85500Y37701D02*
D03*
X88000Y51650D02*
D03*
X114756Y71500D02*
D03*
X119179Y56833D02*
D03*
X79252Y62150D02*
D03*
D49*
X61500Y51500D02*
D03*
X108000Y36449D02*
D03*
X106500Y41000D02*
D03*
X103000Y5701D02*
D03*
X123098Y13067D02*
D03*
X118000Y10901D02*
D03*
X107500Y6701D02*
D03*
X113000Y9001D02*
D03*
X57408Y72539D02*
D03*
X67945Y72330D02*
D03*
X60500Y40583D02*
D03*
X72500Y33000D02*
D03*
X67000Y26401D02*
D03*
X70000Y26201D02*
D03*
X44499Y13701D02*
D03*
X45357Y56595D02*
D03*
X46017Y69500D02*
D03*
X34500Y13701D02*
D03*
X39500D02*
D03*
X40671Y47029D02*
D03*
X49500Y13701D02*
D03*
X47500Y3201D02*
D03*
X67500Y18201D02*
D03*
X54500Y13701D02*
D03*
M02*
