G04*
G04 #@! TF.GenerationSoftware,Altium Limited,Altium Designer,20.1.10 (176)*
G04*
G04 Layer_Physical_Order=2*
G04 Layer_Color=16711680*
%FSLAX25Y25*%
%MOIN*%
G70*
G04*
G04 #@! TF.SameCoordinates,C4499B9A-1E71-4EDD-A5B7-EE233C105FA9*
G04*
G04*
G04 #@! TF.FilePolarity,Positive*
G04*
G01*
G75*
%ADD13C,0.01000*%
%ADD41C,0.01500*%
%ADD43C,0.07000*%
%ADD44R,0.07000X0.07000*%
%ADD45R,0.07000X0.07000*%
%ADD46O,0.05512X0.03543*%
%ADD47R,0.05512X0.03543*%
%ADD48C,0.02700*%
%ADD49C,0.02400*%
G36*
X68357Y81392D02*
X67933Y81067D01*
X67244Y80169D01*
X66811Y79123D01*
X66663Y78000D01*
X66811Y76877D01*
X67244Y75831D01*
X67933Y74933D01*
X68831Y74244D01*
X69877Y73811D01*
X69878Y73811D01*
Y67529D01*
X51410Y49061D01*
X51167Y48697D01*
X51082Y48268D01*
X51082Y48268D01*
Y16869D01*
X49708Y15495D01*
X49500Y15536D01*
X48798Y15397D01*
X48202Y14999D01*
X47804Y14403D01*
X47665Y13701D01*
X47804Y12999D01*
X48202Y12403D01*
X48798Y12005D01*
X49500Y11866D01*
X49708Y11907D01*
X50330Y11285D01*
X50139Y10823D01*
X48964D01*
X46293Y13493D01*
X46335Y13701D01*
X46195Y14403D01*
X45797Y14999D01*
X45621Y15116D01*
Y47928D01*
X51793Y54100D01*
X51793Y54100D01*
X52036Y54464D01*
X52122Y54893D01*
Y73811D01*
X52122Y73811D01*
X53169Y74244D01*
X54067Y74933D01*
X54756Y75831D01*
X55189Y76877D01*
X55337Y78000D01*
X55189Y79123D01*
X54756Y80169D01*
X54067Y81067D01*
X53643Y81392D01*
X53812Y81892D01*
X58188D01*
X58357Y81392D01*
X57933Y81067D01*
X57244Y80169D01*
X56811Y79123D01*
X56663Y78000D01*
X56811Y76877D01*
X57244Y75831D01*
X57933Y74933D01*
X58831Y74244D01*
X59878Y73811D01*
X61000Y73663D01*
X62122Y73811D01*
X63169Y74244D01*
X64067Y74933D01*
X64756Y75831D01*
X65189Y76877D01*
X65337Y78000D01*
X65189Y79123D01*
X64756Y80169D01*
X64067Y81067D01*
X63643Y81392D01*
X63812Y81892D01*
X68188D01*
X68357Y81392D01*
D02*
G37*
G36*
X130864Y7998D02*
Y7361D01*
X130616Y6111D01*
X130128Y4934D01*
X129420Y3874D01*
X128519Y2973D01*
X127460Y2266D01*
X126283Y1778D01*
X125033Y1529D01*
X49070D01*
X48882Y2029D01*
X49196Y2499D01*
X49335Y3201D01*
X49196Y3903D01*
X48798Y4499D01*
X48677Y4579D01*
X48829Y5079D01*
X101288D01*
X101304Y4999D01*
X101702Y4403D01*
X102298Y4005D01*
X103000Y3866D01*
X103702Y4005D01*
X104298Y4403D01*
X104696Y4999D01*
X104835Y5701D01*
X104700Y6379D01*
X104695Y6468D01*
X104953Y6879D01*
X105450D01*
X105674Y6655D01*
X105804Y5999D01*
X106202Y5403D01*
X106798Y5005D01*
X107500Y4866D01*
X108202Y5005D01*
X108798Y5403D01*
X109196Y5999D01*
X109335Y6701D01*
X109200Y7379D01*
X109195Y7468D01*
X109452Y7879D01*
X111585D01*
X111702Y7703D01*
X112298Y7305D01*
X113000Y7166D01*
X113702Y7305D01*
X114298Y7703D01*
X114696Y8299D01*
X114835Y9001D01*
X114700Y9679D01*
X114695Y9768D01*
X114953Y10179D01*
X116317D01*
X116702Y9603D01*
X117298Y9205D01*
X118000Y9066D01*
X118702Y9205D01*
X119298Y9603D01*
X119696Y10199D01*
X119835Y10901D01*
X119700Y11579D01*
X119695Y11668D01*
X119952Y12079D01*
X121593D01*
X121800Y11769D01*
X122396Y11372D01*
X123098Y11232D01*
X123801Y11372D01*
X124396Y11769D01*
X124794Y12365D01*
X124934Y13067D01*
X124794Y13769D01*
X124396Y14365D01*
X123801Y14763D01*
X123098Y14902D01*
X122396Y14763D01*
X121800Y14365D01*
X121772Y14323D01*
X56212D01*
X56196Y14403D01*
X55798Y14999D01*
X55622Y15116D01*
Y47837D01*
X59176Y51392D01*
X59719Y51227D01*
X59804Y50798D01*
X60202Y50202D01*
X60798Y49804D01*
X61361Y49692D01*
X65451Y45602D01*
Y27323D01*
X65304Y27103D01*
X65165Y26401D01*
X65304Y25699D01*
X65702Y25103D01*
X66298Y24705D01*
X67000Y24566D01*
X67702Y24705D01*
X68298Y25103D01*
X68746Y24874D01*
X69298Y24505D01*
X70000Y24366D01*
X70702Y24505D01*
X71298Y24903D01*
X71696Y25499D01*
X71835Y26201D01*
X71696Y26903D01*
X71298Y27499D01*
X71122Y27616D01*
Y30035D01*
X72292Y31206D01*
X72500Y31165D01*
X73202Y31304D01*
X73798Y31702D01*
X74196Y32298D01*
X74335Y33000D01*
X74196Y33702D01*
X73798Y34298D01*
X73202Y34696D01*
X72500Y34835D01*
X71798Y34696D01*
X71202Y34298D01*
X70804Y33702D01*
X70665Y33000D01*
X70706Y32792D01*
X69207Y31293D01*
X68964Y30929D01*
X68878Y30500D01*
X68878Y30500D01*
Y28073D01*
X68378Y27828D01*
X68204Y27963D01*
Y46172D01*
X68099Y46699D01*
X67801Y47146D01*
X63308Y51639D01*
X63196Y52202D01*
X62798Y52798D01*
X62202Y53196D01*
X61773Y53281D01*
X61608Y53824D01*
X73807Y66023D01*
X73807Y66023D01*
X74051Y66387D01*
X74136Y66816D01*
X74136Y66816D01*
Y69550D01*
X78831Y74245D01*
X78831Y74244D01*
X79878Y73811D01*
X81000Y73663D01*
X82122Y73811D01*
X83169Y74244D01*
X83978Y74865D01*
X84478Y74722D01*
Y73090D01*
X84173D01*
X83502Y73001D01*
X82876Y72742D01*
X82339Y72330D01*
X81927Y71793D01*
X81668Y71167D01*
X81579Y70496D01*
X81668Y69825D01*
X81927Y69199D01*
X82339Y68662D01*
X82876Y68250D01*
X83502Y67991D01*
X84173Y67902D01*
X86142D01*
X86813Y67991D01*
X87439Y68250D01*
X87976Y68662D01*
X88388Y69199D01*
X88647Y69825D01*
X88736Y70496D01*
X88647Y71167D01*
X88388Y71793D01*
X87976Y72330D01*
X87439Y72742D01*
X86813Y73001D01*
X86722Y73014D01*
Y75786D01*
X87222Y75886D01*
X87244Y75831D01*
X87933Y74933D01*
X88831Y74244D01*
X89877Y73811D01*
X91000Y73663D01*
X91027Y73640D01*
Y73052D01*
X91027Y73052D01*
X91112Y72623D01*
X91355Y72259D01*
X91792Y71822D01*
X91769Y71793D01*
X91510Y71167D01*
X91422Y70496D01*
X91510Y69825D01*
X91769Y69199D01*
X92182Y68662D01*
X92719Y68250D01*
X93344Y67991D01*
X94016Y67902D01*
X95984D01*
X96656Y67991D01*
X97281Y68250D01*
X97818Y68662D01*
X98231Y69199D01*
X98490Y69825D01*
X98578Y70496D01*
X98490Y71167D01*
X98231Y71793D01*
X97818Y72330D01*
X97281Y72742D01*
X96656Y73001D01*
X95984Y73090D01*
X94016D01*
X93733Y73053D01*
X93270Y73517D01*
Y74322D01*
X94067Y74933D01*
X94756Y75831D01*
X95189Y76877D01*
X95337Y78000D01*
X95189Y79123D01*
X94756Y80169D01*
X94067Y81067D01*
X93169Y81756D01*
X92123Y82189D01*
X91000Y82337D01*
X89877Y82189D01*
X88831Y81756D01*
X87933Y81067D01*
X87244Y80169D01*
X87222Y80114D01*
X86722Y80214D01*
Y81345D01*
X86636Y81775D01*
X86393Y82139D01*
X86393Y82139D01*
X84725Y83807D01*
X84361Y84050D01*
X84126Y84097D01*
X83983Y84617D01*
X84209Y84791D01*
X84931Y85731D01*
X85384Y86825D01*
X85440Y87250D01*
X81000D01*
X76560D01*
X76616Y86825D01*
X77069Y85731D01*
X77791Y84791D01*
X78027Y84609D01*
X77867Y84135D01*
X74133D01*
X73973Y84609D01*
X74209Y84791D01*
X74931Y85731D01*
X75384Y86825D01*
X75440Y87250D01*
X71000D01*
X66560D01*
X66616Y86825D01*
X67069Y85731D01*
X67791Y84791D01*
X68027Y84609D01*
X67867Y84135D01*
X64133D01*
X63973Y84609D01*
X64209Y84791D01*
X64931Y85731D01*
X65384Y86825D01*
X65440Y87250D01*
X61000D01*
X56560D01*
X56616Y86825D01*
X57069Y85731D01*
X57791Y84791D01*
X58027Y84609D01*
X57867Y84135D01*
X53848D01*
X53679Y84635D01*
X54067Y84933D01*
X54756Y85831D01*
X55189Y86878D01*
X55337Y88000D01*
X55189Y89122D01*
X54756Y90169D01*
X54067Y91067D01*
X53169Y91756D01*
X52122Y92189D01*
X51000Y92337D01*
X49878Y92189D01*
X48831Y91756D01*
X47933Y91067D01*
X47244Y90169D01*
X46811Y89122D01*
X46663Y88000D01*
X46811Y86878D01*
X47244Y85831D01*
X47933Y84933D01*
X48321Y84635D01*
X48152Y84135D01*
X43848D01*
X43679Y84635D01*
X44067Y84933D01*
X44756Y85831D01*
X45189Y86878D01*
X45337Y88000D01*
X45189Y89122D01*
X44756Y90169D01*
X44067Y91067D01*
X43169Y91756D01*
X42123Y92189D01*
X41000Y92337D01*
X39878Y92189D01*
X38831Y91756D01*
X37933Y91067D01*
X37244Y90169D01*
X36811Y89122D01*
X36663Y88000D01*
X36811Y86878D01*
X37244Y85831D01*
X37933Y84933D01*
X38321Y84635D01*
X38152Y84135D01*
X33848D01*
X33679Y84635D01*
X34067Y84933D01*
X34756Y85831D01*
X35189Y86878D01*
X35337Y88000D01*
X35189Y89122D01*
X34756Y90169D01*
X34067Y91067D01*
X33169Y91756D01*
X32122Y92189D01*
X31000Y92337D01*
X29877Y92189D01*
X28831Y91756D01*
X27933Y91067D01*
X27244Y90169D01*
X26811Y89122D01*
X26663Y88000D01*
X26811Y86878D01*
X27244Y85831D01*
X27933Y84933D01*
X28321Y84635D01*
X28152Y84135D01*
X23848D01*
X23679Y84635D01*
X24067Y84933D01*
X24756Y85831D01*
X25189Y86878D01*
X25337Y88000D01*
X25189Y89122D01*
X24756Y90169D01*
X24067Y91067D01*
X23168Y91756D01*
X22122Y92189D01*
X21000Y92337D01*
X19877Y92189D01*
X18832Y91756D01*
X17933Y91067D01*
X17244Y90169D01*
X16811Y89122D01*
X16663Y88000D01*
X16811Y86878D01*
X17244Y85831D01*
X17933Y84933D01*
X18321Y84635D01*
X18152Y84135D01*
X4086D01*
X3657Y84050D01*
X3293Y83807D01*
X3293Y83807D01*
X2707Y83221D01*
X2464Y82857D01*
X2378Y82428D01*
X2379Y82428D01*
Y50000D01*
X2378Y50000D01*
X2464Y49571D01*
X2707Y49207D01*
X7962Y43952D01*
X7744Y43668D01*
X7311Y42623D01*
X7163Y41500D01*
X7311Y40378D01*
X7744Y39331D01*
X8433Y38433D01*
X9331Y37744D01*
X10378Y37311D01*
X11500Y37163D01*
X12622Y37311D01*
X13668Y37744D01*
X14567Y38433D01*
X15256Y39331D01*
X15689Y40378D01*
X15837Y41500D01*
X15689Y42623D01*
X15256Y43668D01*
X14567Y44567D01*
X13668Y45256D01*
X12622Y45689D01*
X11500Y45837D01*
X10378Y45689D01*
X9684Y45402D01*
X4622Y50465D01*
Y81892D01*
X18188D01*
X18357Y81392D01*
X17933Y81067D01*
X17244Y80169D01*
X16811Y79123D01*
X16663Y78000D01*
X16811Y76877D01*
X17244Y75831D01*
X17933Y74933D01*
X18832Y74244D01*
X19877Y73811D01*
X21000Y73663D01*
X22122Y73811D01*
X23168Y74244D01*
X24067Y74933D01*
X24756Y75831D01*
X25189Y76877D01*
X25337Y78000D01*
X25189Y79123D01*
X24756Y80169D01*
X24067Y81067D01*
X23643Y81392D01*
X23812Y81892D01*
X28188D01*
X28357Y81392D01*
X27933Y81067D01*
X27244Y80169D01*
X26811Y79123D01*
X26663Y78000D01*
X26811Y76877D01*
X27244Y75831D01*
X27244Y75831D01*
X19657Y68243D01*
X19413Y67879D01*
X19328Y67450D01*
X19328Y67450D01*
Y40661D01*
X13812Y35146D01*
X13668Y35256D01*
X12622Y35689D01*
X11500Y35837D01*
X10378Y35689D01*
X9331Y35256D01*
X8433Y34567D01*
X7744Y33669D01*
X7311Y32623D01*
X7163Y31500D01*
X7311Y30378D01*
X7744Y29331D01*
X8433Y28433D01*
X9331Y27744D01*
X10378Y27311D01*
X11500Y27163D01*
X12622Y27311D01*
X13668Y27744D01*
X14567Y28433D01*
X15256Y29331D01*
X15689Y30378D01*
X15837Y31500D01*
X15689Y32623D01*
X15330Y33491D01*
X21243Y39404D01*
X21243Y39404D01*
X21486Y39768D01*
X21571Y40197D01*
Y66985D01*
X28831Y74245D01*
X28831Y74244D01*
X29877Y73811D01*
X31000Y73663D01*
X32122Y73811D01*
X33169Y74244D01*
X34067Y74933D01*
X34756Y75831D01*
X35189Y76877D01*
X35337Y78000D01*
X35189Y79123D01*
X34756Y80169D01*
X34067Y81067D01*
X33643Y81392D01*
X33812Y81892D01*
X38188D01*
X38357Y81392D01*
X37933Y81067D01*
X37244Y80169D01*
X36811Y79123D01*
X36663Y78000D01*
X36811Y76877D01*
X37244Y75831D01*
X37933Y74933D01*
X38831Y74244D01*
X39878Y73811D01*
X39878Y73811D01*
Y68217D01*
X33707Y62046D01*
X33464Y61682D01*
X33378Y61253D01*
X33378Y61253D01*
Y15116D01*
X33202Y14999D01*
X32804Y14403D01*
X32665Y13701D01*
X32804Y12999D01*
X33202Y12403D01*
X33798Y12005D01*
X34500Y11866D01*
X34708Y11907D01*
X41207Y5408D01*
X41207Y5408D01*
X41571Y5165D01*
X42000Y5079D01*
X42000Y5079D01*
X46171D01*
X46323Y4579D01*
X46202Y4499D01*
X45804Y3903D01*
X45665Y3201D01*
X45804Y2499D01*
X46118Y2029D01*
X45930Y1529D01*
X7361D01*
X6111Y1778D01*
X4934Y2266D01*
X3874Y2973D01*
X2973Y3874D01*
X2266Y4934D01*
X1778Y6111D01*
X1529Y7361D01*
Y7998D01*
Y97471D01*
X130864D01*
Y7998D01*
D02*
G37*
G36*
X48357Y81392D02*
X47933Y81067D01*
X47244Y80169D01*
X46811Y79123D01*
X46663Y78000D01*
X46811Y76877D01*
X47244Y75831D01*
X47933Y74933D01*
X48831Y74244D01*
X49878Y73811D01*
X49878Y73811D01*
Y55358D01*
X43706Y49186D01*
X43463Y48822D01*
X43378Y48393D01*
X43378Y48393D01*
Y15116D01*
X43202Y14999D01*
X42804Y14403D01*
X42664Y13701D01*
X42804Y12999D01*
X43202Y12403D01*
X43797Y12005D01*
X44499Y11866D01*
X44707Y11907D01*
X47030Y9584D01*
X46838Y9122D01*
X45665D01*
X41294Y13493D01*
X41335Y13701D01*
X41196Y14403D01*
X40798Y14999D01*
X40202Y15397D01*
X39500Y15536D01*
X38798Y15397D01*
X38202Y14999D01*
X37804Y14403D01*
X37665Y13701D01*
X37804Y12999D01*
X38202Y12403D01*
X38798Y12005D01*
X39500Y11866D01*
X39708Y11907D01*
X43830Y7784D01*
X43639Y7322D01*
X42465D01*
X36294Y13493D01*
X36335Y13701D01*
X36196Y14403D01*
X35798Y14999D01*
X35622Y15116D01*
Y60788D01*
X41793Y66960D01*
X41793Y66960D01*
X42036Y67323D01*
X42122Y67753D01*
X42122Y67753D01*
Y73811D01*
X42123Y73811D01*
X43169Y74244D01*
X44067Y74933D01*
X44756Y75831D01*
X45189Y76877D01*
X45337Y78000D01*
X45189Y79123D01*
X44756Y80169D01*
X44067Y81067D01*
X43643Y81392D01*
X43812Y81892D01*
X48188D01*
X48357Y81392D01*
D02*
G37*
%LPC*%
G36*
X81750Y92440D02*
Y88750D01*
X85440D01*
X85384Y89175D01*
X84931Y90269D01*
X84209Y91209D01*
X83269Y91931D01*
X82175Y92384D01*
X81750Y92440D01*
D02*
G37*
G36*
X101750D02*
Y88750D01*
X105440D01*
X105384Y89175D01*
X104931Y90269D01*
X104209Y91209D01*
X103269Y91931D01*
X102175Y92384D01*
X101750Y92440D01*
D02*
G37*
G36*
X91750D02*
Y88750D01*
X95440D01*
X95384Y89175D01*
X94931Y90269D01*
X94209Y91209D01*
X93269Y91931D01*
X92175Y92384D01*
X91750Y92440D01*
D02*
G37*
G36*
X61750D02*
Y88750D01*
X65440D01*
X65384Y89175D01*
X64931Y90269D01*
X64209Y91209D01*
X63269Y91931D01*
X62175Y92384D01*
X61750Y92440D01*
D02*
G37*
G36*
X71750D02*
Y88750D01*
X75440D01*
X75384Y89175D01*
X74931Y90269D01*
X74209Y91209D01*
X73269Y91931D01*
X72175Y92384D01*
X71750Y92440D01*
D02*
G37*
G36*
X100250D02*
X99825Y92384D01*
X98731Y91931D01*
X97791Y91209D01*
X97069Y90269D01*
X96616Y89175D01*
X96560Y88750D01*
X100250D01*
Y92440D01*
D02*
G37*
G36*
X80250D02*
X79825Y92384D01*
X78731Y91931D01*
X77791Y91209D01*
X77069Y90269D01*
X76616Y89175D01*
X76560Y88750D01*
X80250D01*
Y92440D01*
D02*
G37*
G36*
X60250D02*
X59825Y92384D01*
X58731Y91931D01*
X57791Y91209D01*
X57069Y90269D01*
X56616Y89175D01*
X56560Y88750D01*
X60250D01*
Y92440D01*
D02*
G37*
G36*
X90250D02*
X89825Y92384D01*
X88731Y91931D01*
X87791Y91209D01*
X87069Y90269D01*
X86616Y89175D01*
X86560Y88750D01*
X90250D01*
Y92440D01*
D02*
G37*
G36*
X70250D02*
X69825Y92384D01*
X68731Y91931D01*
X67791Y91209D01*
X67069Y90269D01*
X66616Y89175D01*
X66560Y88750D01*
X70250D01*
Y92440D01*
D02*
G37*
G36*
X111000Y92337D02*
X109878Y92189D01*
X108831Y91756D01*
X107933Y91067D01*
X107244Y90169D01*
X106811Y89122D01*
X106663Y88000D01*
X106811Y86878D01*
X107244Y85831D01*
X107933Y84933D01*
X108831Y84244D01*
X109878Y83811D01*
X111000Y83663D01*
X112122Y83811D01*
X113169Y84244D01*
X114067Y84933D01*
X114756Y85831D01*
X115189Y86878D01*
X115337Y88000D01*
X115189Y89122D01*
X114756Y90169D01*
X114067Y91067D01*
X113169Y91756D01*
X112122Y92189D01*
X111000Y92337D01*
D02*
G37*
G36*
X105440Y87250D02*
X101750D01*
Y83560D01*
X102175Y83616D01*
X103269Y84069D01*
X104209Y84791D01*
X104931Y85731D01*
X105384Y86825D01*
X105440Y87250D01*
D02*
G37*
G36*
X95440D02*
X91750D01*
Y83560D01*
X92175Y83616D01*
X93269Y84069D01*
X94209Y84791D01*
X94931Y85731D01*
X95384Y86825D01*
X95440Y87250D01*
D02*
G37*
G36*
X100250D02*
X96560D01*
X96616Y86825D01*
X97069Y85731D01*
X97791Y84791D01*
X98731Y84069D01*
X99825Y83616D01*
X100250Y83560D01*
Y87250D01*
D02*
G37*
G36*
X90250D02*
X86560D01*
X86616Y86825D01*
X87069Y85731D01*
X87791Y84791D01*
X88731Y84069D01*
X89825Y83616D01*
X90250Y83560D01*
Y87250D01*
D02*
G37*
G36*
X115300Y82300D02*
X106700D01*
Y73700D01*
X115300D01*
Y82300D01*
D02*
G37*
G36*
X101000Y82337D02*
X99878Y82189D01*
X98831Y81756D01*
X97933Y81067D01*
X97244Y80169D01*
X96811Y79123D01*
X96663Y78000D01*
X96811Y76877D01*
X97244Y75831D01*
X97933Y74933D01*
X98831Y74244D01*
X99878Y73811D01*
X101000Y73663D01*
X102122Y73811D01*
X103169Y74244D01*
X104067Y74933D01*
X104756Y75831D01*
X105189Y76877D01*
X105337Y78000D01*
X105189Y79123D01*
X104756Y80169D01*
X104067Y81067D01*
X103169Y81756D01*
X102122Y82189D01*
X101000Y82337D01*
D02*
G37*
G36*
X105827Y73090D02*
X103858D01*
X103187Y73001D01*
X102561Y72742D01*
X102024Y72330D01*
X101612Y71793D01*
X101353Y71167D01*
X101264Y70496D01*
X101353Y69825D01*
X101612Y69199D01*
X102024Y68662D01*
X102561Y68250D01*
X103187Y67991D01*
X103858Y67902D01*
X105827D01*
X106109Y67939D01*
X108378Y65670D01*
Y59224D01*
X107878Y59054D01*
X107661Y59338D01*
X107124Y59750D01*
X106498Y60009D01*
X105827Y60098D01*
X103858D01*
X103187Y60009D01*
X102561Y59750D01*
X102024Y59338D01*
X101612Y58801D01*
X101353Y58175D01*
X101264Y57504D01*
X101353Y56833D01*
X101612Y56207D01*
X102024Y55670D01*
X102561Y55258D01*
X103187Y54998D01*
X103858Y54910D01*
X105827D01*
X106498Y54998D01*
X107124Y55258D01*
X107661Y55670D01*
X107878Y55953D01*
X108378Y55784D01*
Y42576D01*
X107878Y42359D01*
X107622Y42564D01*
Y47423D01*
X107536Y47852D01*
X107293Y48216D01*
X107293Y48216D01*
X98511Y56998D01*
X98578Y57504D01*
X98490Y58175D01*
X98231Y58801D01*
X97818Y59338D01*
X97281Y59750D01*
X96656Y60009D01*
X95984Y60098D01*
X94016D01*
X93344Y60009D01*
X92719Y59750D01*
X92182Y59338D01*
X91769Y58801D01*
X91510Y58175D01*
X91422Y57504D01*
X91510Y56833D01*
X91769Y56207D01*
X92182Y55670D01*
X92719Y55258D01*
X93344Y54998D01*
X94016Y54910D01*
X95984D01*
X96656Y54998D01*
X97138Y55198D01*
X105378Y46958D01*
Y42415D01*
X105202Y42298D01*
X104804Y41702D01*
X104665Y41000D01*
X104804Y40298D01*
X105202Y39702D01*
X105798Y39304D01*
X106500Y39165D01*
X107202Y39304D01*
X107798Y39702D01*
X107878Y39823D01*
X108378Y39671D01*
Y38792D01*
X107838Y38252D01*
X107298Y38145D01*
X106702Y37747D01*
X106304Y37151D01*
X106165Y36449D01*
X106304Y35747D01*
X106702Y35151D01*
X107298Y34753D01*
X108000Y34614D01*
X108702Y34753D01*
X109298Y35151D01*
X109696Y35747D01*
X109835Y36449D01*
X109731Y36973D01*
X110293Y37535D01*
X110536Y37899D01*
X110622Y38328D01*
X110622Y38328D01*
Y66135D01*
X110622Y66135D01*
X110536Y66564D01*
X110293Y66928D01*
X110293Y66928D01*
X108051Y69170D01*
X108073Y69199D01*
X108332Y69825D01*
X108421Y70496D01*
X108332Y71167D01*
X108073Y71793D01*
X107661Y72330D01*
X107124Y72742D01*
X106498Y73001D01*
X105827Y73090D01*
D02*
G37*
G36*
X88913Y60276D02*
X85908D01*
Y58254D01*
X88913D01*
Y60276D01*
D02*
G37*
G36*
X84408D02*
X81402D01*
Y58254D01*
X84408D01*
Y60276D01*
D02*
G37*
G36*
X15800Y65800D02*
X7200D01*
Y57200D01*
X15800D01*
Y65800D01*
D02*
G37*
G36*
X88913Y56754D02*
X85908D01*
Y54732D01*
X88913D01*
Y56754D01*
D02*
G37*
G36*
X84408D02*
X81402D01*
Y54732D01*
X84408D01*
Y56754D01*
D02*
G37*
G36*
X11500Y55837D02*
X10378Y55689D01*
X9331Y55256D01*
X8433Y54567D01*
X7744Y53669D01*
X7311Y52622D01*
X7163Y51500D01*
X7311Y50378D01*
X7744Y49332D01*
X8433Y48433D01*
X9331Y47744D01*
X10378Y47311D01*
X11500Y47163D01*
X12622Y47311D01*
X13668Y47744D01*
X14567Y48433D01*
X15256Y49332D01*
X15689Y50378D01*
X15837Y51500D01*
X15689Y52622D01*
X15256Y53669D01*
X14567Y54567D01*
X13668Y55256D01*
X12622Y55689D01*
X11500Y55837D01*
D02*
G37*
G36*
X12250Y25940D02*
Y22250D01*
X15940D01*
X15884Y22675D01*
X15431Y23769D01*
X14709Y24709D01*
X13769Y25431D01*
X12675Y25884D01*
X12250Y25940D01*
D02*
G37*
G36*
X10750D02*
X10325Y25884D01*
X9231Y25431D01*
X8291Y24709D01*
X7569Y23769D01*
X7116Y22675D01*
X7060Y22250D01*
X10750D01*
Y25940D01*
D02*
G37*
G36*
X15940Y20750D02*
X12250D01*
Y17060D01*
X12675Y17116D01*
X13769Y17569D01*
X14709Y18291D01*
X15431Y19231D01*
X15884Y20325D01*
X15940Y20750D01*
D02*
G37*
G36*
X10750D02*
X7060D01*
X7116Y20325D01*
X7569Y19231D01*
X8291Y18291D01*
X9231Y17569D01*
X10325Y17116D01*
X10750Y17060D01*
Y20750D01*
D02*
G37*
G36*
X46017Y71335D02*
X45315Y71196D01*
X44720Y70798D01*
X44322Y70202D01*
X44182Y69500D01*
X44322Y68798D01*
X44720Y68202D01*
X45315Y67804D01*
X45415Y67785D01*
Y58478D01*
X45357Y58430D01*
X44654Y58290D01*
X44059Y57892D01*
X43661Y57297D01*
X43521Y56595D01*
X43661Y55892D01*
X44059Y55297D01*
X44654Y54899D01*
X45357Y54759D01*
X46059Y54899D01*
X46654Y55297D01*
X46683Y55340D01*
X47104Y55621D01*
X47403Y56068D01*
X47426Y56187D01*
X47765Y56525D01*
X47765Y56525D01*
X48063Y56972D01*
X48168Y57499D01*
X48168Y57499D01*
Y69500D01*
X48063Y70027D01*
X47765Y70473D01*
X47344Y70755D01*
X47315Y70798D01*
X46720Y71196D01*
X46017Y71335D01*
D02*
G37*
%LPD*%
D13*
X85158Y70496D02*
X85600Y70939D01*
Y81345D01*
X83932Y83014D02*
X85600Y81345D01*
X4086Y83014D02*
X83932D01*
X3500Y50000D02*
Y82428D01*
X4086Y83014D01*
X52203Y48268D02*
X71000Y67064D01*
X73014Y66816D02*
Y70014D01*
X71000Y67064D02*
Y78000D01*
X52203Y16404D02*
Y48268D01*
X54500Y48302D02*
X73014Y66816D01*
X54500Y13701D02*
Y48302D01*
X96419Y57504D02*
X106500Y47423D01*
Y41000D02*
Y47423D01*
X109500Y38328D02*
Y66135D01*
X105139Y70496D02*
X106796Y68839D01*
Y68839D02*
Y68839D01*
Y68839D02*
X109500Y66135D01*
X108000Y36828D02*
X109500Y38328D01*
X104842Y70496D02*
X105139D01*
X108000Y36449D02*
Y36828D01*
X95000Y57504D02*
X96419D01*
X34500Y61253D02*
X41000Y67753D01*
X34500Y13701D02*
X34842Y13359D01*
X34500Y13701D02*
Y61253D01*
X34842Y13359D02*
X42000Y6201D01*
X44499Y13701D02*
Y48393D01*
X51000Y54893D01*
X70000Y26201D02*
Y30500D01*
X72500Y33000D01*
X91000Y78000D02*
X92148Y76852D01*
Y73052D02*
Y76852D01*
Y73052D02*
X94704Y70496D01*
X95000D01*
X51000Y54893D02*
Y78000D01*
X41000Y67753D02*
Y78000D01*
X107177Y9001D02*
X113000D01*
X106477Y9701D02*
X107177Y9001D01*
X48499Y9701D02*
X106477D01*
X44499Y13701D02*
X48499Y9701D01*
X42000Y6201D02*
X101714D01*
X11334Y32676D02*
X12929D01*
X20450Y40197D01*
X3500Y50000D02*
X10824Y42676D01*
X11334D01*
X39500Y13701D02*
X39500D01*
X49500D02*
X52203Y16404D01*
X49500Y13701D02*
X51900Y11301D01*
X54879Y13701D02*
X55379Y13201D01*
X54500Y13701D02*
X54879D01*
X102732Y5969D02*
X103000Y5701D01*
X107214Y6701D02*
X107500D01*
X105914Y8001D02*
X107214Y6701D01*
X122964Y13201D02*
X123098Y13067D01*
X101714Y6201D02*
X101946Y5969D01*
X102732D01*
X20450Y40197D02*
Y67450D01*
X39500Y13701D02*
X45200Y8001D01*
X117600Y11301D02*
X118000Y10901D01*
X20450Y67450D02*
X31000Y78000D01*
X73014Y70014D02*
X81000Y78000D01*
X45200Y8001D02*
X105914D01*
X55379Y13201D02*
X122964D01*
X51900Y11301D02*
X117600D01*
D41*
X61500Y51500D02*
X61500D01*
X66828Y26573D02*
Y46172D01*
X61500Y51500D02*
X66828Y46172D01*
Y26573D02*
X67000Y26401D01*
X46792Y57499D02*
Y69500D01*
X46131Y56838D02*
X46792Y57499D01*
X46131Y56595D02*
Y56838D01*
D43*
X11500Y41500D02*
D03*
Y51500D02*
D03*
Y31500D02*
D03*
Y21500D02*
D03*
X21000Y88000D02*
D03*
X31000D02*
D03*
X41000D02*
D03*
X51000D02*
D03*
X61000D02*
D03*
X71000D02*
D03*
X81000D02*
D03*
X91000D02*
D03*
X101000D02*
D03*
X111000D02*
D03*
X21000Y78000D02*
D03*
X31000D02*
D03*
X41000D02*
D03*
X51000D02*
D03*
X61000D02*
D03*
X71000D02*
D03*
X81000D02*
D03*
X91000D02*
D03*
X101000D02*
D03*
D44*
X11500Y61500D02*
D03*
D45*
X111000Y78000D02*
D03*
D46*
X85158Y70496D02*
D03*
X95000D02*
D03*
X104842D02*
D03*
Y57504D02*
D03*
X95000D02*
D03*
D47*
X85158D02*
D03*
D48*
X85500Y37701D02*
D03*
X88000Y51650D02*
D03*
X114756Y71500D02*
D03*
X119179Y56833D02*
D03*
X79252Y62150D02*
D03*
D49*
X61500Y51500D02*
D03*
X108000Y36449D02*
D03*
X106500Y41000D02*
D03*
X103000Y5701D02*
D03*
X123098Y13067D02*
D03*
X118000Y10901D02*
D03*
X107500Y6701D02*
D03*
X113000Y9001D02*
D03*
X57408Y72539D02*
D03*
X67945Y72330D02*
D03*
X60500Y40583D02*
D03*
X72500Y33000D02*
D03*
X67000Y26401D02*
D03*
X70000Y26201D02*
D03*
X44499Y13701D02*
D03*
X45357Y56595D02*
D03*
X46017Y69500D02*
D03*
X34500Y13701D02*
D03*
X39500D02*
D03*
X40671Y47029D02*
D03*
X49500Y13701D02*
D03*
X47500Y3201D02*
D03*
X67500Y18201D02*
D03*
X54500Y13701D02*
D03*
M02*
