M48
;Layer_Color=9474304
;FILE_FORMAT=2:4
INCH,TZ
;TYPE=PLATED
T1F00S00C0.0120
T2F00S00C0.0120
T3F00S00C0.0130
T5F00S00C0.0400
T6F00S00C0.0430
%
T01
X3450Y1370
X3950
X4950
X5450
X4750Y320
X6750Y1820
X7000Y2620
X10800Y3645
X10750Y670
X10300Y570
X11800Y1090
X12310Y1307
X4067Y4703
T02
X4450Y1370
X6700Y2640
X7250Y3300
X6050Y4058
X6150Y5150
X4536Y5659
X10650Y4100
X11300Y900
X6794Y7233
X5741Y7254
X4602Y6950
T03
X8550Y3770
X8800Y5165
X7925Y6215
X11918Y5683
X11476Y7150
T05
X3100Y7800
Y8800
X4100
X5100
X6100
X7100
X8100
X9100
X10100
X11100
Y7800
X10100
X9100
X8100
X7100
X6100
X5100
X4100
X2100
Y8800
T06
X1150Y2150
Y3150
Y4150
Y5150
Y6150
M30
